<?xml version="1.0" standalone="no"?>
<!DOCTYPE svg PUBLIC "-//W3C//DTD SVG 20010904//EN"
 "http://www.w3.org/TR/2001/REC-SVG-20010904/DTD/svg10.dtd">
<svg version="1.0" xmlns="http://www.w3.org/2000/svg"
 width="640.000000pt" height="668.000000pt" viewBox="0 0 640.000000 668.000000"
 preserveAspectRatio="xMidYMid meet">
<metadata>
Created by potrace 1.11, written by Peter Selinger 2001-2013
</metadata>
<g transform="translate(0.000000,668.000000) scale(0.100000,-0.100000)"
fill="#000000" stroke="none">
<path d="M3079 6356 c-79 -54 -150 -256 -185 -527 -14 -108 -19 -245 -23 -697
l-6 -564 -385 -214 c-212 -118 -388 -214 -392 -214 -5 0 -8 19 -8 43 0 66 -36
223 -60 262 -79 129 -170 -46 -170 -328 l0 -114 -336 -187 c-185 -103 -339
-185 -341 -182 -3 3 -9 41 -13 85 -19 187 -105 260 -164 138 -34 -68 -46 -138
-46 -258 l0 -97 -436 -242 c-239 -133 -434 -244 -432 -245 2 -2 640 86 1418
195 778 109 1416 198 1417 196 1 -1 14 -500 28 -1109 l27 -1107 -134 -153
c-406 -465 -615 -704 -627 -720 -9 -12 13 -5 70 21 46 22 262 121 479 222 217
101 400 183 405 183 9 0 846 -388 930 -431 29 -15 30 -14 15 4 -8 10 -187 211
-398 446 l-383 428 31 1107 c17 609 32 1109 34 1110 1 1 625 -83 1386 -186
762 -104 1386 -188 1388 -186 2 1 -176 103 -395 226 l-398 224 -6 135 c-6 148
-26 233 -66 276 -37 40 -62 29 -99 -42 -24 -47 -33 -80 -39 -141 -4 -44 -10
-84 -13 -89 -4 -6 -152 71 -342 178 l-335 188 -7 132 c-5 110 -11 150 -38 231
-31 97 -56 137 -84 137 -36 0 -106 -203 -106 -306 0 -47 -3 -55 -16 -50 -8 3
-188 103 -400 222 l-384 216 0 531 c0 293 -5 588 -10 657 -21 271 -96 511
-185 588 -47 42 -112 44 -166 8z"/>
</g>
</svg>
