<?xml version="1.0" standalone="no"?>
<!DOCTYPE svg PUBLIC "-//W3C//DTD SVG 20010904//EN"
 "http://www.w3.org/TR/2001/REC-SVG-20010904/DTD/svg10.dtd">
<svg version="1.0" xmlns="http://www.w3.org/2000/svg"
 width="542.000000pt" height="556.000000pt" viewBox="0 0 542.000000 556.000000"
 preserveAspectRatio="xMidYMid meet">
<metadata>
Created by potrace 1.11, written by Peter Selinger 2001-2013
</metadata>
<g transform="translate(0.000000,556.000000) scale(0.100000,-0.100000)"
fill="#000000" stroke="none">
<path d="M2555 5133 c-66 -58 -123 -116 -127 -127 -3 -12 -11 -97 -18 -191
-14 -220 -68 -864 -81 -980 -5 -49 -13 -93 -17 -96 -4 -4 -443 -316 -977 -694
-533 -378 -974 -691 -979 -695 -5 -5 15 -49 46 -102 42 -73 58 -92 73 -90 23
4 1774 428 1824 442 30 8 36 6 61 -22 16 -17 33 -52 39 -77 5 -25 24 -197 42
-382 l31 -335 -26 -38 c-26 -39 -99 -219 -118 -290 -9 -36 -4 -65 41 -245 29
-112 51 -209 49 -216 -2 -7 -127 -146 -278 -310 -151 -163 -276 -301 -278
-306 -2 -5 98 -9 241 -9 l245 0 178 83 179 83 178 -83 178 -83 249 0 c138 0
250 3 250 6 0 3 -114 125 -252 271 -139 146 -270 284 -291 308 l-37 44 55 187
c31 104 55 207 55 231 0 54 -89 289 -127 333 l-24 30 40 371 c39 366 40 373
69 413 19 28 35 40 48 38 10 -2 429 -102 929 -222 501 -120 918 -220 928 -222
14 -2 32 20 73 91 30 52 51 97 47 101 -4 4 -450 318 -990 699 -661 467 -983
700 -987 714 -14 52 -116 1136 -116 1231 0 18 -31 52 -122 135 -100 89 -129
110 -153 110 -24 0 -55 -22 -150 -106z"/>
</g>
</svg>
