<?xml version="1.0" standalone="no"?>
<!DOCTYPE svg PUBLIC "-//W3C//DTD SVG 20010904//EN"
 "http://www.w3.org/TR/2001/REC-SVG-20010904/DTD/svg10.dtd">
<svg version="1.0" xmlns="http://www.w3.org/2000/svg"
 width="286.000000pt" height="288.000000pt" viewBox="0 0 286.000000 288.000000"
 preserveAspectRatio="xMidYMid meet">
<metadata>
Created by potrace 1.11, written by Peter Selinger 2001-2013
</metadata>
<g transform="translate(0.000000,288.000000) scale(0.100000,-0.100000)"
fill="#000000" stroke="none">
<path d="M1384 2646 c-42 -19 -79 -69 -98 -135 -13 -45 -16 -112 -16 -392 l0
-338 -112 -35 c-62 -20 -251 -77 -420 -129 -321 -98 -359 -115 -399 -181 -36
-59 -20 -253 20 -242 9 3 79 8 157 12 l140 6 11 80 c8 63 16 85 35 105 21 21
29 23 46 14 24 -13 52 -94 52 -151 l0 -37 -62 -7 c-34 -3 -63 -8 -66 -11 -10
-9 21 -95 40 -112 19 -17 21 -17 43 9 13 15 26 45 30 67 4 23 12 44 18 48 13
9 458 43 470 36 4 -2 7 -166 7 -364 l0 -359 -170 0 -170 0 -30 -47 c-42 -66
-41 -125 1 -176 l30 -37 498 0 498 0 31 39 c42 53 44 110 5 175 l-28 45 -172
1 -173 0 0 365 0 365 23 0 c12 0 103 -7 202 -15 266 -21 241 -26 249 43 9 74
43 137 75 137 33 0 62 -59 69 -140 3 -48 9 -66 21 -69 9 -3 72 -7 141 -11 69
-4 133 -9 142 -11 22 -6 38 49 38 134 0 75 -23 127 -74 166 -65 49 -409 171
-706 250 l-165 43 -5 349 c-5 294 -9 356 -23 392 -24 62 -52 97 -91 116 -41
19 -71 20 -112 2z"/>
</g>
</svg>
