<?xml version="1.0" encoding="UTF-8" standalone="no"?>
<!-- Created with Inkscape (http://www.inkscape.org/) -->

<svg
   xmlns:dc="http://purl.org/dc/elements/1.1/"
   xmlns:cc="http://creativecommons.org/ns#"
   xmlns:rdf="http://www.w3.org/1999/02/22-rdf-syntax-ns#"
   xmlns:svg="http://www.w3.org/2000/svg"
   xmlns="http://www.w3.org/2000/svg"
   xmlns:sodipodi="http://sodipodi.sourceforge.net/DTD/sodipodi-0.dtd"
   xmlns:inkscape="http://www.inkscape.org/namespaces/inkscape"
   version="1.0"
   width="681.29999"
   height="868.14001"
   id="svg2"
   inkscape:version="0.48.2 r9819"
   sodipodi:docname="simbolo_federal.svg">
  <metadata
     id="metadata3079">
    <rdf:RDF>
      <cc:Work
         rdf:about="">
        <dc:format>image/svg+xml</dc:format>
        <dc:type
           rdf:resource="http://purl.org/dc/dcmitype/StillImage" />
      </cc:Work>
    </rdf:RDF>
  </metadata>
  <sodipodi:namedview
     pagecolor="#ffffff"
     bordercolor="#666666"
     borderopacity="1"
     objecttolerance="10"
     gridtolerance="10"
     guidetolerance="10"
     inkscape:pageopacity="0"
     inkscape:pageshadow="2"
     inkscape:window-width="1440"
     inkscape:window-height="852"
     id="namedview3077"
     showgrid="false"
     inkscape:zoom="0.68852655"
     inkscape:cx="80.724213"
     inkscape:cy="439.19988"
     inkscape:window-x="0"
     inkscape:window-y="82"
     inkscape:window-maximized="1"
     inkscape:current-layer="g3059" />
  <defs
     id="defs4" />
  <g
     transform="translate(-34.1708,-152.09232)"
     id="layer1">
    <g
       id="g3059">
      <path
         inkscape:connector-curvature="0"
         style="fill:#ffffff;stroke:#000000;stroke-width:18.83822440999999870;stroke-linecap:butt;stroke-linejoin:miter;stroke-miterlimit:4;stroke-opacity:1;stroke-dasharray:none;fill-opacity:1"
         id="path4226"
         d="m 86.446894,248.55124 0,176.16089 c 27.355316,48.51944 66.207596,92.83789 7.861905,172.67254 C 97.254702,770.77545 201.93239,899.33218 383.23381,956.6831 555.33161,894.12308 644.13394,778.85474 660.36595,599.12884 615.20671,510.28775 639.82822,464.42304 672.15881,421.22379 l 0,-172.67255 -56.9988,-47.09251 c -95.69314,67.60421 -167.91311,39.38988 -237.82264,1.74416 -66.54794,42.12522 -138.92031,66.52945 -241.75357,-1.74416 l -49.136906,47.09251 z" />
      <path
         inkscape:connector-curvature="0"
         style="fill:none;stroke:#000000;stroke-width:18.79175376999999969;stroke-linecap:butt;stroke-linejoin:miter;stroke-miterlimit:4;stroke-opacity:1;stroke-dasharray:none"
         id="path5197"
         d="M 120.64714,397.36507 635.9931,395.39914" />
      <path
         id="path3051"
         d="m 198.9478,378.28021 0,-118.37847 35.77194,0 21.47931,80.7493 21.23706,-80.7493 35.85269,0 0,118.37847 -22.20605,0 0,-93.18468 -23.49805,93.18468 -23.01355,0 -23.41729,-93.18468 0,93.18468 -22.20606,0" />
      <path
         id="path3053"
         d="m 337.1906,378.28021 0,-118.37847 87.77448,0 0,20.02583 -63.87269,0 0,26.24352 59.43148,0 0,19.94508 -59.43148,0 0,32.21897 66.13367,0 0,19.94507 -90.03546,0" />
      <path
         id="path3055"
         d="m 435.62398,378.28021 40.45539,-61.77321 -36.66018,-56.60526 27.93926,0 23.74029,38.03292 23.2558,-38.03292 27.69701,0 -36.82168,57.4935 40.4554,60.88497 -28.8275,0 -26.24352,-40.93989 -26.32427,40.93989 -28.666,0" />
    </g>
  </g>
</svg>
