<?xml version="1.0" encoding="UTF-8" standalone="no"?>
<!-- Created with Inkscape (http://www.inkscape.org/) -->

<svg
   xmlns:dc="http://purl.org/dc/elements/1.1/"
   xmlns:cc="http://creativecommons.org/ns#"
   xmlns:rdf="http://www.w3.org/1999/02/22-rdf-syntax-ns#"
   xmlns:svg="http://www.w3.org/2000/svg"
   xmlns="http://www.w3.org/2000/svg"
   xmlns:sodipodi="http://sodipodi.sourceforge.net/DTD/sodipodi-0.dtd"
   xmlns:inkscape="http://www.inkscape.org/namespaces/inkscape"
   version="1.0"
   width="681.29999"
   height="868.14001"
   id="svg2"
   inkscape:version="0.48.2 r9819"
   sodipodi:docname="carretera_estatal.svg">
  <metadata
     id="metadata3079">
    <rdf:RDF>
      <cc:Work
         rdf:about="">
        <dc:format>image/svg+xml</dc:format>
        <dc:type
           rdf:resource="http://purl.org/dc/dcmitype/StillImage" />
      </cc:Work>
    </rdf:RDF>
  </metadata>
  <sodipodi:namedview
     pagecolor="#ffffff"
     bordercolor="#666666"
     borderopacity="1"
     objecttolerance="10"
     gridtolerance="10"
     guidetolerance="10"
     inkscape:pageopacity="0"
     inkscape:pageshadow="2"
     inkscape:window-width="1440"
     inkscape:window-height="852"
     id="namedview3077"
     showgrid="false"
     inkscape:zoom="0.68852655"
     inkscape:cx="80.724213"
     inkscape:cy="439.19988"
     inkscape:window-x="0"
     inkscape:window-y="82"
     inkscape:window-maximized="1"
     inkscape:current-layer="flowRoot3039" />
  <defs
     id="defs4" />
  <g
     transform="translate(-34.1708,-152.09232)"
     id="layer1">
    <g
       id="g3059">
      <path
         inkscape:connector-curvature="0"
         style="fill:#ffffff;fill-opacity:1;stroke:#000000;stroke-width:18.83822441;stroke-linecap:butt;stroke-linejoin:miter;stroke-miterlimit:4;stroke-opacity:1;stroke-dasharray:none"
         id="path4226"
         d="M 83.54214,203.52756 C 59.933223,488.62094 125.07755,869.78155 383.23381,956.6831 695.43057,810.86906 663.45051,467.55991 666.3493,204.97993 451.76909,202.1998 257.74086,202.48443 83.54214,203.52756 z"
         sodipodi:nodetypes="cccc" />
      <path
         inkscape:connector-curvature="0"
         style="fill:none;stroke:#000000;stroke-width:20.04461479;stroke-linecap:butt;stroke-linejoin:miter;stroke-miterlimit:4;stroke-opacity:1;stroke-dasharray:none"
         id="path5197"
         d="m 80.75135,397.36507 586.35374,-1.96593" />
      <g
         transform="matrix(4.02942,0,0,4.02942,-338.41332,-105.16594)"
         style="font-size:40px;font-style:normal;font-variant:normal;font-weight:normal;font-stretch:normal;line-height:125%;letter-spacing:0px;word-spacing:0px;fill:#000000;fill-opacity:1;stroke:none;font-family:'.Savoye LET CC.';-inkscape-font-specification:'.Savoye LET CC.'"
         id="flowRoot3039">
        <path
           d="m 132.09766,121.76931 10.99609,-28.632815 4.08203,0 11.71875,28.632815 -4.31641,0 -3.33984,-8.67188 -11.97266,0 -3.14453,8.67188 -4.02343,0 m 8.26171,-11.75782 9.70704,0 -2.98829,-7.92968 c -0.91147,-2.408835 -1.58855,-4.387999 -2.03125,-5.937503 -0.36459,1.835962 -0.87891,3.658876 -1.54296,5.468753 l -3.14454,8.39843"
           style="font-family:Arial;-inkscape-font-specification:Arial"
           id="path3048" />
        <path
           d="m 175.35937,110.53884 0,-3.35938 12.12891,-0.0195 0,10.625 c -1.862,1.48438 -3.78258,2.60417 -5.76172,3.35938 -1.97919,0.74218 -4.01043,1.11328 -6.09375,1.11328 -2.81251,0 -5.3711,-0.59896 -7.67578,-1.79688 -2.29167,-1.21093 -4.02344,-2.95572 -5.19531,-5.23437 -1.17188,-2.27864 -1.75782,-4.82421 -1.75781,-7.63672 -1e-5,-2.78644 0.57942,-5.3841 1.73828,-7.792969 1.17187,-2.421851 2.85155,-4.218724 5.03906,-5.390625 2.18749,-1.171846 4.70702,-1.757783 7.55859,-1.757812 2.0703,2.9e-5 3.93879,0.33857 5.60547,1.015625 1.67967,0.66409 2.99477,1.595078 3.94531,2.792968 0.9505,1.197941 1.67315,2.76044 2.16797,4.687503 l -3.41797,0.9375 c -0.42971,-1.45831 -0.96356,-2.604147 -1.60156,-3.437503 -0.63804,-0.833309 -1.5495,-1.497371 -2.73437,-1.992187 -1.18492,-0.507787 -2.50002,-0.761693 -3.94532,-0.761719 -1.73178,2.6e-5 -3.22917,0.266953 -4.49218,0.800781 -1.26303,0.520858 -2.28517,1.210962 -3.06641,2.070313 -0.76824,0.859397 -1.36719,1.803405 -1.79687,2.832035 -0.72918,1.77085 -1.09376,3.69142 -1.09375,5.76171 -1e-5,2.5521 0.43619,4.68751 1.30859,6.40625 0.88541,1.71876 2.16796,2.9948 3.84766,3.82813 1.67967,0.83334 3.46352,1.25 5.35156,1.25 1.64061,0 3.24217,-0.3125 4.80469,-0.9375 1.56247,-0.63802 2.74737,-1.3151 3.55468,-2.03125 l 0,-5.33203 -8.41797,0"
           style="font-family:Arial;-inkscape-font-specification:Arial"
           id="path3050" />
        <path
           d="m 191.76562,112.57009 3.57422,-0.3125 c 0.16927,1.4323 0.55989,2.61068 1.17188,3.53515 0.62499,0.91147 1.58853,1.65365 2.89062,2.22657 1.30208,0.5599 2.76692,0.83984 4.39453,0.83984 1.4453,0 2.72134,-0.21484 3.82813,-0.64453 1.10675,-0.42968 1.92706,-1.01562 2.46094,-1.75781 0.54685,-0.7552 0.82029,-1.57552 0.82031,-2.46094 -2e-5,-0.89843 -0.26044,-1.67968 -0.78125,-2.34375 -0.52085,-0.67707 -1.38023,-1.24348 -2.57813,-1.69922 -0.76824,-0.29947 -2.46746,-0.76171 -5.09765,-1.38672 -2.63022,-0.638 -4.47267,-1.23696 -5.52735,-1.79687 -1.36719,-0.71613 -2.38932,-1.60155 -3.0664,-2.65625 -0.66407,-1.06769 -0.9961,-2.2591 -0.9961,-3.57422 0,-1.445291 0.41016,-2.792946 1.23047,-4.04297 0.82031,-1.262994 2.01823,-2.220025 3.59375,-2.871094 1.57552,-0.651013 3.32682,-0.976533 5.25391,-0.976562 2.12238,2.9e-5 3.99087,0.34508 5.60547,1.035156 1.62758,0.677111 2.87758,1.679714 3.75,3.007812 0.87237,1.328149 1.34112,2.832054 1.40625,4.511718 l -3.63281,0.27344 c -0.19534,-1.809875 -0.8594,-3.177061 -1.99219,-4.101564 -1.11981,-0.924454 -2.77996,-1.386693 -4.98047,-1.386719 -2.29168,2.6e-5 -3.96485,0.423203 -5.01953,1.269532 -1.04167,0.833357 -1.56251,1.84247 -1.5625,3.027341 -1e-5,1.02867 0.37109,1.87502 1.11328,2.53906 0.72916,0.66409 2.6302,1.34768 5.70312,2.05079 3.08593,0.69012 5.20181,1.29558 6.34766,1.8164 1.66665,0.76825 2.89711,1.74481 3.69141,2.92969 0.79424,1.17189 1.19138,2.52605 1.1914,4.0625 -2e-5,1.52344 -0.43622,2.96224 -1.30859,4.31641 -0.87242,1.34114 -2.12893,2.38932 -3.76953,3.14453 -1.62762,0.74218 -3.46356,1.11328 -5.50781,1.11328 -2.59116,0 -4.76564,-0.37761 -6.52344,-1.13281 -1.7448,-0.75521 -3.1185,-1.88802 -4.1211,-3.39844 -0.98958,-1.52343 -1.51041,-3.24218 -1.5625,-5.15625"
           style="font-family:Arial;-inkscape-font-specification:Arial"
           id="path3052" />
      </g>
    </g>
  </g>
</svg>
