<?xml version="1.0" standalone="no"?>
<!DOCTYPE svg PUBLIC "-//W3C//DTD SVG 20010904//EN"
 "http://www.w3.org/TR/2001/REC-SVG-20010904/DTD/svg10.dtd">
<svg version="1.0" xmlns="http://www.w3.org/2000/svg"
 width="310.000000pt" height="418.000000pt" viewBox="0 0 310.000000 418.000000"
 preserveAspectRatio="xMidYMid meet">
<metadata>
Created by potrace 1.11, written by Peter Selinger 2001-2013
</metadata>
<g transform="translate(0.000000,418.000000) scale(0.100000,-0.100000)"
fill="#000000" stroke="none">
<path d="M528 3783 c-28 -7 -51 -112 -92 -413 -23 -174 -25 -230 -37 -928 -7
-463 -8 -747 -2 -753 5 -5 475 -8 1219 -7 l1209 3 3 360 c3 379 -11 983 -28
1195 -9 111 -21 199 -61 440 -5 36 -17 75 -25 88 l-14 22 -1078 -1 c-592 -1
-1085 -3 -1094 -6z m2079 -218 c37 -224 53 -523 60 -1172 l6 -563 -1061 0
-1062 0 0 373 c1 693 24 1142 71 1385 l10 52 982 -2 982 -3 12 -70z"/>
<path d="M975 3611 c-53 -24 -67 -43 -69 -90 -1 -51 19 -87 58 -103 48 -20
1247 -19 1295 1 55 23 79 110 45 160 -36 51 -38 51 -686 51 -561 0 -606 -2
-643 -19z m1255 -96 c0 -13 -75 -15 -615 -15 -540 0 -615 2 -615 15 0 13 75
15 615 15 540 0 615 -2 615 -15z"/>
<path d="M728 3345 c-19 -11 -28 -25 -32 -52 -17 -108 -44 -880 -33 -925 4
-13 18 -30 32 -36 19 -9 257 -12 918 -12 872 0 893 1 925 20 21 13 32 27 32
42 -4 180 -40 928 -45 941 -4 10 -19 23 -32 28 -14 5 -380 9 -881 9 -728 -1
-861 -3 -884 -15z m812 -510 l0 -365 -361 0 -362 0 7 263 c3 144 9 308 13 365
l6 102 348 0 349 0 0 -365z m841 358 c4 -43 24 -710 22 -715 -2 -5 -164 -8
-359 -8 l-354 0 0 365 0 365 345 0 c190 0 345 -3 346 -7z"/>
<path d="M1041 2192 c-50 -25 -74 -63 -79 -124 -5 -63 21 -109 78 -139 33 -18
68 -19 572 -19 473 0 542 2 578 16 53 21 70 55 70 139 0 61 -3 69 -30 95 -51
48 -80 50 -637 50 -473 0 -521 -2 -552 -18z m1116 -94 c27 -25 29 -45 7 -76
l-15 -22 -531 0 c-585 0 -568 -2 -568 61 0 60 -7 59 564 59 l520 0 23 -22z"/>
<path d="M397 1653 c-4 -3 -7 -153 -7 -332 0 -285 -3 -337 -20 -414 -19 -86
-19 -88 0 -162 18 -70 25 -89 49 -125 8 -11 37 -16 112 -20 l101 -5 2 -75 c2
-95 26 -147 79 -174 72 -35 374 -44 489 -15 81 21 131 92 144 207 l7 62 261
-2 261 -3 6 -65 c7 -91 40 -148 102 -179 105 -52 433 -53 524 -1 58 32 77 71
83 165 l5 80 100 5 c99 5 99 5 122 38 12 18 29 66 38 106 15 68 15 77 -2 142
-14 57 -18 128 -23 419 l-5 350 -1211 3 c-666 1 -1214 -1 -1217 -5z m2273
-368 l0 -215 -1060 0 -1060 0 0 215 0 215 1060 0 1060 0 0 -215z m35 -425 c4
-17 4 -48 0 -70 l-7 -40 -1086 2 -1086 3 -7 34 c-4 19 -5 49 -2 68 l6 33 1088
0 1087 0 7 -30z m-1515 -299 c0 -23 -8 -48 -19 -62 -19 -23 -25 -24 -185 -27
-198 -4 -206 -1 -206 67 0 26 3 51 7 54 3 4 96 7 205 7 l198 0 0 -39z m1240
-20 c0 -44 -4 -60 -16 -65 -26 -10 -321 -7 -348 4 -24 9 -26 15 -26 65 l0 55
195 0 195 0 0 -59z"/>
<path d="M897 1475 c-50 -19 -88 -49 -109 -88 -22 -40 -24 -157 -4 -195 62
-120 260 -138 349 -33 47 56 48 154 4 240 -40 80 -142 112 -240 76z m128 -89
c41 -18 55 -42 55 -99 0 -80 -70 -132 -145 -107 -88 29 -103 146 -25 207 20
17 73 16 115 -1z"/>
<path d="M2192 1476 c-59 -19 -111 -62 -129 -105 -32 -76 12 -218 82 -261 31
-19 47 -22 120 -19 77 4 86 6 115 34 77 73 95 169 47 262 -14 28 -40 61 -57
73 -38 27 -120 35 -178 16z m145 -108 c53 -54 36 -155 -32 -184 -46 -19 -74
-18 -112 6 -64 38 -66 142 -5 191 37 29 113 22 149 -13z"/>
</g>
</svg>
