<?xml version="1.0" standalone="no"?>
<!DOCTYPE svg PUBLIC "-//W3C//DTD SVG 20010904//EN"
 "http://www.w3.org/TR/2001/REC-SVG-20010904/DTD/svg10.dtd">
<svg version="1.0" xmlns="http://www.w3.org/2000/svg"
 width="390.000000pt" height="386.000000pt" viewBox="0 0 390.000000 386.000000"
 preserveAspectRatio="xMidYMid meet">
<metadata>
Created by potrace 1.11, written by Peter Selinger 2001-2013
</metadata>
<g transform="translate(0.000000,386.000000) scale(0.100000,-0.100000)"
fill="#000000" stroke="none">
<path d="M176 3688 c-14 -20 -16 -202 -16 -1748 0 -1546 2 -1728 16 -1748 l15
-22 1727 0 c1547 0 1730 2 1750 16 l22 15 0 1730 0 1730 -25 24 -24 25 -1725
0 -1725 0 -15 -22z m3434 -1748 l0 -1680 -1680 0 -1680 0 0 1680 0 1680 1680
0 1680 0 0 -1680z"/>
<path d="M380 3503 c-41 -15 -40 28 -40 -1564 0 -1375 2 -1529 16 -1543 18
-18 -88 -17 1844 -17 l1255 0 17 22 c17 20 18 108 18 1541 l0 1519 -25 24 -24
25 -1523 -1 c-838 0 -1530 -3 -1538 -6z m560 -1563 l0 -1440 -240 0 -240 0 0
1440 0 1440 240 0 240 0 0 -1440z m610 1177 l0 -263 -35 -34 c-56 -54 -115
-152 -142 -237 -21 -63 -26 -98 -26 -183 -1 -169 44 -297 149 -424 l54 -65 0
-110 0 -110 -146 -3 -146 -3 -28 -34 c-16 -18 -33 -53 -39 -76 -7 -29 -11
-219 -11 -559 l0 -516 -55 0 -55 0 0 1440 0 1440 240 0 240 0 0 -263z m600 28
l0 -235 -38 19 c-111 57 -277 67 -389 23 l-53 -20 0 224 0 224 240 0 240 0 0
-235z m610 -1205 l0 -1440 -60 0 -59 0 -3 528 c-3 527 -3 527 -26 574 -36 74
-57 82 -204 86 l-128 4 0 137 0 137 41 54 c168 221 171 511 7 728 l-48 63 0
285 0 284 240 0 240 0 0 -1440z m600 0 l0 -1440 -240 0 -240 0 0 1440 0 1440
240 0 240 0 0 -1440z m-1210 -165 l0 -85 -240 0 -240 0 0 74 0 74 53 -20 c82
-32 218 -36 303 -9 38 12 80 28 94 36 14 8 26 14 28 15 1 0 2 -38 2 -85z"/>
</g>
</svg>
