<?xml version="1.0" standalone="no"?>
<!DOCTYPE svg PUBLIC "-//W3C//DTD SVG 20010904//EN"
 "http://www.w3.org/TR/2001/REC-SVG-20010904/DTD/svg10.dtd">
<svg version="1.0" xmlns="http://www.w3.org/2000/svg"
 width="290.000000pt" height="368.000000pt" viewBox="0 0 290.000000 368.000000"
 preserveAspectRatio="xMidYMid meet">
<metadata>
Created by potrace 1.11, written by Peter Selinger 2001-2013
</metadata>
<g transform="translate(0.000000,368.000000) scale(0.100000,-0.100000)"
fill="#000000" stroke="none">
<path d="M1200 3315 c-99 -28 -188 -95 -244 -184 -76 -121 -87 -282 -27 -400
82 -160 267 -261 427 -232 213 40 354 251 316 474 -25 147 -112 271 -227 323
-70 32 -170 40 -245 19z m217 -135 c93 -53 143 -153 143 -284 0 -117 -56 -212
-152 -260 -133 -66 -315 6 -381 152 -30 65 -29 168 2 237 71 159 254 232 388
155z"/>
<path d="M1230 2441 c-74 -23 -136 -78 -169 -151 -16 -36 -21 -66 -21 -148 0
-97 -1 -104 -21 -109 -54 -14 -181 -86 -249 -140 -166 -132 -287 -333 -332
-553 -28 -136 -21 -338 16 -463 95 -318 321 -541 625 -618 73 -18 105 -21 225
-17 123 5 153 9 236 36 142 47 238 108 350 221 143 144 221 301 250 499 l12
82 44 0 43 0 3 -319 3 -320 29 -30 c72 -75 242 -67 316 13 l25 28 3 499 c2
487 2 501 -18 528 -39 56 -66 61 -307 61 l-220 0 -53 90 c-99 168 -272 321
-427 379 l-63 23 0 97 c0 114 -10 153 -53 217 -54 82 -159 121 -247 95z m106
-117 c18 -9 44 -33 56 -53 l23 -36 0 -580 0 -580 -22 -42 c-60 -112 -159 -108
-217 9 l-26 52 0 558 c0 602 0 597 53 647 14 13 41 27 59 31 18 4 35 8 36 9 2
1 19 -6 38 -15z m-296 -833 c0 -458 0 -459 60 -546 54 -79 163 -126 242 -105
54 15 121 80 155 149 l28 56 3 433 c1 237 5 432 8 432 16 0 129 -65 181 -105
88 -66 213 -214 213 -252 0 -10 -30 -13 -120 -13 -129 0 -164 -9 -194 -52 -13
-18 -16 -57 -16 -215 l0 -193 218 0 219 0 -9 -62 c-11 -86 -42 -178 -91 -273
-58 -112 -190 -244 -302 -302 -138 -71 -209 -88 -365 -87 -119 0 -145 3 -215
27 -114 38 -198 90 -290 182 -120 120 -196 272 -224 445 -42 258 48 546 228
728 81 82 213 170 259 172 9 0 12 -90 12 -419z m1454 -67 c14 -5 16 -56 16
-464 0 -354 -3 -460 -12 -468 -20 -15 -75 -24 -108 -17 l-30 7 0 359 0 359
-325 0 -325 0 0 108 c0 60 3 112 7 115 8 9 756 9 777 1z"/>
</g>
</svg>
