<?xml version="1.0" standalone="no"?>
<!DOCTYPE svg PUBLIC "-//W3C//DTD SVG 20010904//EN"
 "http://www.w3.org/TR/2001/REC-SVG-20010904/DTD/svg10.dtd">
<svg version="1.0" xmlns="http://www.w3.org/2000/svg"
 width="484.000000pt" height="318.000000pt" viewBox="0 0 484.000000 318.000000"
 preserveAspectRatio="xMidYMid meet">
<metadata>
Created by potrace 1.11, written by Peter Selinger 2001-2013
</metadata>
<g transform="translate(0.000000,318.000000) scale(0.100000,-0.100000)"
fill="#000000" stroke="none">
<path d="M659 2816 c-134 -36 -229 -177 -229 -340 0 -61 5 -83 28 -126 30 -58
21 -52 410 -259 l192 -102 0 -80 c0 -78 0 -79 -25 -79 -14 0 -37 -11 -50 -25
l-25 -24 0 -224 c0 -212 1 -226 21 -251 14 -17 30 -26 50 -26 29 0 29 0 29
-59 0 -42 5 -65 18 -81 l18 -22 644 -14 c355 -8 695 -15 755 -16 l110 -3 0
-35 0 -35 -757 -5 -757 -5 -266 -250 c-297 -280 -310 -297 -303 -396 4 -53 9
-64 43 -99 87 -89 266 -101 521 -35 155 41 275 89 509 204 l220 109 1190 127
c655 69 1200 131 1213 137 12 7 25 21 27 32 3 12 11 164 20 339 10 208 19 326
28 341 6 13 77 83 157 155 148 135 180 174 180 224 0 35 -22 87 -46 109 -20
17 -3797 829 -3852 827 -15 0 -48 -6 -73 -13z m1979 -513 c1194 -255 1862
-401 1862 -409 0 -10 -250 -245 -268 -252 -4 -1 -703 99 -1552 222 l-1545 225
-279 148 c-192 103 -282 156 -292 173 -31 57 -2 191 54 242 41 38 63 47 112
48 25 0 883 -179 1908 -397z m-744 -454 c357 -52 643 -95 635 -97 -9 -1 -313
29 -676 68 -363 38 -663 70 -667 70 -3 0 -6 14 -6 31 0 30 2 31 33 27 17 -3
324 -48 681 -99z m816 -250 c789 -83 1437 -153 1439 -155 4 -4 -19 -527 -24
-532 -1 -1 -535 -60 -1186 -130 l-1184 -128 -120 -66 c-316 -173 -582 -265
-795 -275 -157 -7 -213 15 -196 80 3 14 115 127 255 260 l249 237 755 2 c739
3 755 3 777 23 80 72 71 227 -15 276 -27 15 -90 19 -550 28 -286 6 -612 14
-724 17 l-204 6 7 152 c3 83 9 199 13 259 l6 107 31 -5 c17 -2 677 -73 1466
-156z"/>
</g>
</svg>
