<?xml version="1.0" standalone="no"?>
<!DOCTYPE svg PUBLIC "-//W3C//DTD SVG 20010904//EN"
 "http://www.w3.org/TR/2001/REC-SVG-20010904/DTD/svg10.dtd">
<svg version="1.0" xmlns="http://www.w3.org/2000/svg"
 width="772.000000pt" height="288.000000pt" viewBox="0 0 772.000000 288.000000"
 preserveAspectRatio="xMidYMid meet">
<metadata>
Created by potrace 1.11, written by Peter Selinger 2001-2013
</metadata>
<g transform="translate(0.000000,288.000000) scale(0.100000,-0.100000)"
fill="#000000" stroke="none">
<path d="M2053 2688 c-49 -9 -52 -11 -72 -58 -12 -27 -21 -53 -21 -59 0 -7
-24 -11 -60 -11 l-60 0 0 55 0 55 -70 0 -70 0 2 -812 3 -813 53 -3 52 -3 0
-49 c0 -27 5 -52 10 -55 6 -3 10 -50 10 -106 l0 -99 -552 0 -552 0 -93 55 -92
55 -163 -2 -163 -3 -3 -82 -3 -83 56 0 55 0 0 -55 0 -55 118 0 117 0 165 -135
164 -135 3037 0 3037 0 151 135 150 135 120 0 121 0 0 96 0 97 -55 -6 -55 -6
0 61 0 61 -67 -6 c-38 -4 -128 -10 -202 -13 l-135 -7 -41 -39 -42 -38 -1822 0
-1821 0 0 85 0 84 63 3 62 3 3 373 2 372 -55 0 -55 0 0 55 0 55 -666 0 -665 0
6 23 c11 36 137 347 229 566 47 113 84 207 81 209 -2 3 -37 0 -76 -7 -40 -6
-73 -10 -75 -8 -3 2 7 29 21 61 14 31 25 59 25 61 0 7 -47 4 -107 -7z"/>
</g>
</svg>
