<?xml version="1.0" standalone="no"?>
<!DOCTYPE svg PUBLIC "-//W3C//DTD SVG 20010904//EN"
 "http://www.w3.org/TR/2001/REC-SVG-20010904/DTD/svg10.dtd">
<svg version="1.0" xmlns="http://www.w3.org/2000/svg"
 width="388.000000pt" height="306.000000pt" viewBox="0 0 388.000000 306.000000"
 preserveAspectRatio="xMidYMid meet">
<metadata>
Created by potrace 1.11, written by Peter Selinger 2001-2013
</metadata>
<g transform="translate(0.000000,306.000000) scale(0.100000,-0.100000)"
fill="#000000" stroke="none">
<path d="M1898 2759 c-14 -8 -18 -23 -18 -64 l0 -55 -57 -29 c-93 -47 -153
-120 -178 -218 -8 -31 -22 -61 -31 -66 -35 -20 -95 -81 -129 -133 l-36 -54
-301 2 -300 3 -22 61 c-59 161 -167 249 -306 248 -103 -2 -190 -52 -252 -145
-78 -119 -73 -46 -76 -1061 l-3 -908 761 0 760 0 0 440 0 440 255 0 255 0 0
-440 0 -440 755 0 755 0 0 893 c0 712 -3 902 -14 942 -38 144 -136 247 -262
276 -145 33 -303 -75 -355 -243 l-21 -68 -303 0 -303 0 -26 44 c-14 24 -54 70
-89 102 -54 49 -67 68 -80 114 -30 103 -108 190 -197 222 -28 9 -30 13 -30 62
0 68 -18 86 -86 86 -27 0 -57 -5 -66 -11z m130 -274 c77 -33 121 -102 122
-192 l0 -52 50 -22 c75 -32 159 -138 160 -201 0 -17 27 -18 430 -18 l430 0 0
61 c0 82 16 131 58 180 63 74 130 87 204 40 34 -22 53 -44 74 -88 l29 -58 0
-825 0 -825 -610 0 -610 0 -3 443 -2 442 -400 0 -400 0 0 -445 0 -445 -610 0
-610 0 0 828 0 827 24 50 c12 28 39 65 59 82 118 104 270 2 284 -192 l6 -75
423 0 423 0 10 38 c22 80 96 162 172 191 24 9 27 16 34 78 11 102 44 151 122
178 50 19 86 18 131 0z"/>
</g>
</svg>
