<?xml version="1.0" standalone="no"?>
<!DOCTYPE svg PUBLIC "-//W3C//DTD SVG 20010904//EN"
 "http://www.w3.org/TR/2001/REC-SVG-20010904/DTD/svg10.dtd">
<svg version="1.0" xmlns="http://www.w3.org/2000/svg"
 width="394.000000pt" height="404.000000pt" viewBox="0 0 394.000000 404.000000"
 preserveAspectRatio="xMidYMid meet">
<metadata>
Created by potrace 1.11, written by Peter Selinger 2001-2013
</metadata>
<g transform="translate(0.000000,404.000000) scale(0.100000,-0.100000)"
fill="#000000" stroke="none">
<path d="M1805 3273 c-105 -333 -195 -608 -202 -610 -7 -3 -290 56 -630 130
-340 74 -619 134 -621 132 -2 -2 190 -215 427 -474 237 -260 431 -475 431
-479 0 -4 -194 -216 -430 -472 -236 -255 -428 -466 -426 -468 2 -2 284 58 627
133 342 75 625 132 629 128 4 -4 92 -279 196 -610 104 -331 192 -599 195 -595
3 4 90 277 194 607 103 330 189 602 191 603 1 2 284 -58 629 -133 344 -75 628
-135 629 -134 2 2 -191 213 -430 469 -238 256 -433 468 -434 472 0 3 196 219
435 479 239 260 433 474 432 475 -1 2 -279 -58 -617 -132 -338 -73 -622 -134
-630 -134 -12 0 -62 148 -204 603 -104 331 -192 605 -195 609 -4 4 -92 -265
-196 -599z m391 -698 c333 -112 509 -473 396 -810 -40 -117 -145 -249 -256
-320 -178 -113 -423 -124 -619 -28 -96 48 -228 179 -274 274 -88 179 -89 384
-3 563 86 179 276 319 475 350 67 10 207 -4 281 -29z"/>
<path d="M1937 2206 c-105 -29 -167 -113 -167 -226 1 -144 87 -230 234 -230
136 0 230 92 230 225 0 96 -45 172 -127 213 -57 28 -112 34 -170 18z"/>
</g>
</svg>
