<?xml version="1.0" standalone="no"?>
<!DOCTYPE svg PUBLIC "-//W3C//DTD SVG 20010904//EN"
 "http://www.w3.org/TR/2001/REC-SVG-20010904/DTD/svg10.dtd">
<svg version="1.0" xmlns="http://www.w3.org/2000/svg"
 width="488.000000pt" height="488.000000pt" viewBox="0 0 488.000000 488.000000"
 preserveAspectRatio="xMidYMid meet">
<metadata>
Created by potrace 1.11, written by Peter Selinger 2001-2013
</metadata>
<g transform="translate(0.000000,488.000000) scale(0.100000,-0.100000)"
fill="#000000" stroke="none">
<path d="M1476 4158 c-24 -34 -24 -2202 0 -2236 l15 -22 479 0 c417 0 485 -2
520 -16 36 -14 40 -20 40 -50 l0 -33 -498 -3 -499 -3 -199 -175 c-291 -256
-304 -268 -304 -301 0 -61 -17 -59 530 -59 l499 0 3 -464 3 -464 31 -39 c17
-21 46 -48 64 -61 l34 -22 577 2 577 3 39 31 c21 16 48 50 61 74 22 44 22 47
22 492 l0 448 565 0 565 0 16 26 c13 19 15 32 8 50 -10 27 -476 441 -512 455
-13 5 -275 9 -583 9 l-559 0 0 44 c0 31 5 46 16 50 9 3 247 6 529 6 454 0 515
2 529 16 14 14 16 130 16 1124 0 994 -2 1110 -16 1124 -14 14 -144 16 -1284
16 l-1269 0 -15 -22z m2464 -1118 l0 -1020 -402 0 -402 0 26 28 c13 15 35 42
47 59 l22 33 257 0 c249 0 256 1 279 22 l23 21 0 864 0 864 -25 25 -24 24
-991 -2 c-968 -3 -992 -3 -1006 -22 -12 -17 -14 -154 -14 -888 0 -855 0 -868
20 -888 19 -19 33 -20 249 -20 l228 0 42 -55 c22 -31 41 -58 41 -60 0 -3 -164
-5 -365 -5 l-365 0 0 1020 0 1020 1180 0 1180 0 0 -1020z m-275 10 l0 -785
-188 -3 -188 -2 7 22 c44 139 55 301 30 428 -66 325 -314 550 -606 550 -147 0
-267 -54 -386 -174 -92 -93 -151 -196 -186 -323 -30 -110 -29 -305 1 -417 11
-44 21 -81 21 -83 0 -1 -72 -3 -160 -3 l-160 0 0 783 c0 431 3 787 7 790 3 4
412 6 907 5 l901 -3 0 -785z m-840 76 c166 -44 297 -175 361 -361 24 -69 28
-96 28 -200 1 -140 -11 -199 -65 -312 -74 -155 -208 -265 -359 -293 -208 -40
-422 112 -505 359 -150 444 161 909 540 807z m-765 -1601 l0 -145 -407 0 -408
0 55 48 c30 26 104 91 165 144 l110 98 243 0 242 0 0 -145z m1271 135 c18 -10
19 -28 19 -646 l0 -635 -25 -24 -24 -25 -540 0 -540 0 -20 26 c-21 26 -21 34
-21 658 0 478 3 635 12 644 16 16 1109 17 1139 2z m886 -111 c76 -67 149 -132
163 -145 l25 -24 -468 0 -467 0 0 145 0 145 304 0 305 0 138 -121z"/>
<path d="M450 4040 c-20 -20 -20 -33 -20 -1000 0 -967 0 -980 20 -1000 19 -19
33 -20 445 -20 l426 0 24 25 25 24 0 971 0 971 -25 24 -24 25 -426 0 c-412 0
-426 -1 -445 -20z m795 -1000 l0 -895 -347 -3 -348 -2 0 900 0 900 348 -2 347
-3 0 -895z"/>
</g>
</svg>
