<?xml version="1.0" standalone="no"?>
<!DOCTYPE svg PUBLIC "-//W3C//DTD SVG 20010904//EN"
 "http://www.w3.org/TR/2001/REC-SVG-20010904/DTD/svg10.dtd">
<svg version="1.0" xmlns="http://www.w3.org/2000/svg"
 width="416.000000pt" height="290.000000pt" viewBox="0 0 416.000000 290.000000"
 preserveAspectRatio="xMidYMid meet">
<metadata>
Created by potrace 1.11, written by Peter Selinger 2001-2013
</metadata>
<g transform="translate(0.000000,290.000000) scale(0.100000,-0.100000)"
fill="#000000" stroke="none">
<path d="M3036 2720 c-164 -21 -328 -71 -478 -146 -119 -59 -168 -91 -168
-110 0 -9 -158 -504 -350 -1101 -193 -597 -349 -1088 -346 -1091 3 -2 60 28
128 68 183 109 234 135 330 169 143 50 242 64 408 58 176 -6 259 -26 415 -101
155 -74 194 -90 201 -83 4 4 155 469 335 1034 181 565 336 1047 344 1071 14
43 14 43 -13 53 -15 5 -61 27 -102 48 -96 50 -227 96 -331 116 -102 19 -282
26 -373 15z m327 -205 c99 -17 256 -71 264 -91 4 -11 -551 -1761 -563 -1773
-2 -2 -39 10 -82 27 -291 115 -591 121 -889 18 -40 -14 -73 -21 -73 -16 0 4
121 383 268 842 l269 833 79 42 c94 50 233 98 341 117 104 19 281 19 386 1z"/>
<path d="M1505 2544 c-184 -25 -284 -50 -415 -101 -90 -35 -270 -135 -270
-150 0 -10 -585 -1840 -680 -2126 -16 -48 -26 -86 -22 -84 4 2 70 41 147 87
282 168 403 209 641 217 118 4 170 2 234 -11 105 -22 223 -65 308 -113 37 -20
72 -37 77 -38 6 0 25 -6 43 -14 18 -7 34 -12 36 -10 7 7 686 2131 686 2145 0
8 -5 14 -11 14 -6 0 -61 24 -123 54 -126 62 -203 89 -318 111 -82 15 -279 27
-333 19z m295 -210 c85 -16 246 -69 255 -85 4 -6 -356 -1147 -536 -1695 l-30
-91 -78 33 c-268 116 -603 123 -889 19 -41 -15 -75 -25 -77 -23 -2 2 119 381
269 843 l271 840 80 42 c96 50 234 98 342 117 107 19 292 20 393 0z"/>
</g>
</svg>
