<?xml version="1.0" standalone="no"?>
<!DOCTYPE svg PUBLIC "-//W3C//DTD SVG 20010904//EN"
 "http://www.w3.org/TR/2001/REC-SVG-20010904/DTD/svg10.dtd">
<svg version="1.0" xmlns="http://www.w3.org/2000/svg"
 width="296.000000pt" height="398.000000pt" viewBox="0 0 296.000000 398.000000"
 preserveAspectRatio="xMidYMid meet">
<metadata>
Created by potrace 1.11, written by Peter Selinger 2001-2013
</metadata>
<g transform="translate(0.000000,398.000000) scale(0.100000,-0.100000)"
fill="#000000" stroke="none">
<path d="M767 3649 c-96 -23 -199 -106 -246 -197 -18 -36 -21 -59 -21 -177 0
-119 2 -137 19 -154 10 -10 25 -21 32 -24 22 -9 -25 -45 -74 -58 -79 -20 -131
-52 -163 -100 -59 -88 -59 -92 -59 -1009 l0 -835 22 -31 c13 -18 45 -46 72
-64 54 -34 202 -90 294 -110 31 -7 57 -16 57 -20 0 -4 -72 -105 -161 -226
l-160 -219 3 -115 c2 -63 7 -121 12 -128 5 -8 43 -12 127 -12 l119 0 46 63
c25 34 52 74 60 90 l15 27 763 0 764 0 37 -67 c63 -115 59 -113 201 -113 143
0 134 -11 134 146 l0 101 -156 218 c-86 120 -158 224 -161 232 -3 8 2 13 14
13 37 0 199 52 268 87 77 38 128 81 145 123 8 19 10 271 8 886 l-3 859 -29 58
c-34 71 -91 115 -188 148 l-67 23 31 26 30 26 6 134 5 135 -31 60 c-45 89 -93
140 -170 177 l-67 33 -745 2 c-414 1 -762 -3 -783 -8z m523 -274 c0 -106 -3
-132 -20 -165 l-20 -40 -159 0 c-275 0 -409 43 -427 136 -8 43 24 114 66 144
60 42 102 49 338 49 l222 1 0 -125z m300 48 l0 -78 -67 1 -68 2 -3 76 -3 76
71 0 70 0 0 -77z m678 53 c30 -9 70 -32 90 -51 32 -29 37 -40 37 -77 0 -63
-34 -111 -102 -144 -55 -27 -61 -28 -278 -32 l-222 -5 -17 24 c-13 19 -16 50
-16 167 l0 143 228 -3 c182 -3 237 -8 280 -22z m-694 -217 c89 -25 160 -141
137 -225 -21 -79 -111 -153 -186 -154 -41 0 -127 42 -153 74 -76 98 -42 239
71 292 58 27 75 29 131 13z m-253 -403 l37 -34 -52 -54 c-59 -61 -76 -105 -76
-199 0 -113 76 -236 174 -280 129 -59 325 13 394 145 23 43 27 63 26 131 0 98
-24 154 -91 216 l-45 41 34 35 33 35 375 -5 c206 -3 389 -9 405 -14 41 -12 63
-61 75 -164 6 -46 10 -312 10 -591 l0 -506 -44 -26 c-25 -14 -92 -42 -149 -61
-226 -76 -508 -101 -1017 -91 -291 5 -356 9 -488 31 -290 48 -473 95 -502 130
-9 11 -11 149 -6 572 3 307 9 583 13 612 15 101 51 108 518 110 l340 0 36 -33z
m315 -128 c67 -45 97 -104 90 -176 -6 -69 -31 -110 -90 -146 -58 -36 -142 -46
-198 -23 -66 28 -126 137 -113 207 9 47 38 100 72 131 37 35 46 37 124 38 59
1 72 -3 115 -31z m-1136 -1274 c266 -90 651 -131 1155 -121 401 8 629 38 853
113 57 19 106 34 108 34 3 0 4 -14 2 -32 -3 -29 -9 -34 -83 -65 -98 -42 -265
-86 -411 -109 -143 -22 -866 -32 -1054 -15 -249 23 -438 66 -577 131 -72 34
-83 42 -83 64 0 14 3 26 8 26 4 0 41 -12 82 -26z m15 -183 c268 -95 762 -143
1237 -122 344 16 552 48 754 116 58 19 108 35 110 35 2 0 4 -30 4 -66 0 -61
-2 -68 -32 -98 -82 -82 -341 -130 -833 -156 -549 -29 -1161 44 -1312 157 -32
23 -33 27 -33 94 0 43 4 69 11 69 6 0 48 -13 94 -29z m1015 -456 c217 0 441 4
498 8 99 8 102 8 102 -12 l0 -21 -605 0 c-605 0 -605 0 -605 21 0 20 3 20 108
12 59 -4 285 -8 502 -8z m-710 -66 l5 -54 700 0 700 0 3 58 c2 31 7 57 12 57
15 0 70 -71 198 -253 118 -168 122 -176 122 -226 l0 -51 -55 0 -55 0 -58 79
-57 80 -818 0 -818 1 -51 -80 -51 -80 -58 0 -59 0 0 50 c0 48 4 56 156 265 86
119 161 214 168 212 6 -2 13 -28 16 -58z"/>
<path d="M560 2122 c-49 -49 -52 -126 -7 -177 25 -29 120 -53 522 -129 271
-52 302 -54 337 -26 33 26 60 93 52 128 -14 56 -39 78 -116 100 -136 38 -646
132 -723 132 -27 0 -44 -7 -65 -28z m192 -86 c56 -14 182 -38 279 -55 299 -51
354 -68 334 -102 -10 -15 -69 -7 -295 41 -102 22 -231 46 -287 54 -97 15 -163
37 -163 54 0 7 21 32 26 32 1 0 49 -11 106 -24z"/>
<path d="M2080 2090 c-168 -32 -327 -61 -353 -65 -116 -16 -165 -137 -91 -225
34 -40 51 -40 355 15 138 25 285 50 327 56 150 21 222 72 222 158 0 74 -50
122 -122 120 -18 -1 -170 -27 -338 -59z m368 -62 c4 -22 -21 -29 -288 -82
-446 -89 -481 -93 -454 -49 6 11 39 25 80 35 94 24 614 117 639 115 11 -1 21
-9 23 -19z"/>
<path d="M577 1819 c-23 -13 -56 -84 -57 -119 0 -31 32 -85 59 -99 26 -14 713
-152 767 -154 50 -2 78 19 105 78 17 38 17 45 3 93 -15 51 -16 52 -77 71 -109
33 -688 141 -755 141 -15 0 -35 -5 -45 -11z m352 -139 c389 -71 425 -80 429
-108 3 -18 -1 -22 -22 -22 -21 0 -261 43 -585 105 -105 20 -148 40 -130 61 6
8 16 14 22 14 6 0 135 -23 286 -50z"/>
<path d="M2200 1789 c-113 -22 -270 -51 -348 -64 -206 -36 -252 -65 -252 -156
0 -54 22 -89 72 -112 31 -14 47 -12 268 29 129 24 291 53 359 65 130 21 202
47 226 82 17 24 20 109 5 137 -14 26 -73 60 -101 59 -13 -1 -116 -19 -229 -40z
m248 -81 c4 -21 -49 -38 -225 -73 -154 -31 -474 -85 -502 -85 -14 0 -21 6 -21
19 0 23 1 23 415 106 286 57 328 61 333 33z"/>
<path d="M1461 2727 c-48 -15 -99 -69 -107 -114 -15 -79 36 -181 103 -210 59
-24 169 8 212 63 17 21 21 41 21 96 0 88 -18 120 -84 153 -53 27 -90 30 -145
12z m112 -105 c50 -55 21 -122 -52 -122 -46 0 -71 26 -71 72 0 59 85 93 123
50z"/>
<path d="M762 581 c-12 -21 -19 -41 -15 -45 8 -8 1553 -8 1553 0 0 4 -10 24
-22 45 l-22 39 -736 0 -736 0 -22 -39z"/>
</g>
</svg>
