<?xml version="1.0" standalone="no"?>
<!DOCTYPE svg PUBLIC "-//W3C//DTD SVG 20010904//EN"
 "http://www.w3.org/TR/2001/REC-SVG-20010904/DTD/svg10.dtd">
<svg version="1.0" xmlns="http://www.w3.org/2000/svg"
 width="378.000000pt" height="460.000000pt" viewBox="0 0 378.000000 460.000000"
 preserveAspectRatio="xMidYMid meet">
<metadata>
Created by potrace 1.11, written by Peter Selinger 2001-2013
</metadata>
<g transform="translate(0.000000,460.000000) scale(0.100000,-0.100000)"
fill="#000000" stroke="none">
<path d="M1564 4291 c-48 -22 -91 -74 -100 -119 l-6 -32 -147 0 c-80 0 -151
-4 -157 -8 -17 -11 -29 -40 -48 -114 -10 -38 -21 -68 -25 -68 -3 0 -88 -20
-188 -44 -181 -44 -182 -45 -246 -98 -36 -29 -68 -60 -72 -68 -5 -12 -99
-2106 -106 -2373 -2 -79 -8 -72 117 -150 l92 -57 116 0 c64 0 116 -3 116 -6 0
-3 -112 -123 -250 -266 l-250 -260 0 -149 0 -149 155 0 155 0 47 60 46 60
1141 0 1141 -1 43 -59 44 -60 159 0 159 0 0 148 -1 147 -254 265 -254 265 122
5 122 5 87 54 c48 29 94 61 103 71 13 15 10 140 -36 1231 l-51 1214 -62 57
c-33 32 -70 60 -81 64 -11 4 -101 28 -199 53 l-179 46 -23 79 c-13 43 -29 85
-35 92 -8 10 -50 14 -162 16 l-151 3 -6 30 c-9 44 -37 81 -79 107 -35 23 -41
23 -396 26 -335 2 -363 1 -401 -17z m736 -106 c17 -9 30 -22 30 -30 0 -13 -52
-15 -380 -15 -227 0 -380 4 -380 9 0 5 12 19 26 30 26 20 38 21 351 21 271 0
329 -3 353 -15z m379 -197 c5 -18 15 -51 20 -74 6 -22 19 -47 28 -55 10 -8
107 -37 217 -64 181 -46 202 -53 236 -85 l38 -35 47 -1158 c26 -637 46 -1159
44 -1161 -2 -1 -27 -17 -55 -34 l-51 -32 -298 0 -298 0 -116 119 c-74 76 -131
125 -156 136 -54 23 -327 36 -550 26 -219 -10 -225 -13 -375 -165 l-114 -116
-296 0 -296 0 -56 36 -57 35 5 77 c3 42 23 516 44 1052 22 536 42 1025 45
1086 l7 111 39 30 c32 25 76 40 232 78 106 26 201 53 213 60 12 8 24 32 31 61
6 27 16 61 22 77 l11 27 714 0 714 0 11 -32z m-394 -2560 c17 -9 81 -68 143
-131 l114 -114 -586 0 c-322 0 -586 1 -586 1 0 1 53 56 118 123 102 104 124
122 158 128 21 3 46 8 54 10 8 2 137 3 285 2 230 -2 274 -5 300 -19z m890
-590 l230 -241 3 -79 3 -79 -103 3 -103 3 -28 58 -28 57 -1198 0 -1198 0 -26
-60 -26 -60 -105 0 -106 0 0 73 0 72 236 248 236 247 992 0 991 -1 230 -241z"/>
<path d="M1255 3866 c-17 -7 -45 -29 -62 -49 -69 -78 -46 -195 47 -244 l44
-23 681 2 682 3 36 28 c52 40 70 79 65 142 -5 63 -35 108 -88 135 -38 19 -61
20 -707 20 -529 -1 -674 -4 -698 -14z m1355 -106 c35 -19 42 -45 19 -74 l-20
-26 -655 0 c-641 0 -654 0 -674 20 -25 25 -25 31 1 64 l20 26 645 0 c421 0
652 -4 664 -10z"/>
<path d="M740 3441 c-6 -13 -10 -213 -10 -579 0 -468 2 -561 14 -571 22 -19
1165 -17 1183 2 18 18 20 1131 2 1153 -9 12 -112 14 -595 14 -566 0 -584 -1
-594 -19z m1090 -571 l0 -480 -495 0 -495 0 0 480 0 480 495 0 495 0 0 -480z"/>
<path d="M1976 3444 c-14 -14 -16 -79 -16 -573 0 -434 3 -561 13 -574 11 -17
54 -18 592 -18 l580 0 18 22 c16 20 17 62 17 568 0 478 -2 549 -16 569 l-15
22 -579 0 c-513 0 -580 -2 -594 -16z m1094 -574 l0 -480 -500 0 -500 0 0 480
0 480 500 0 500 0 0 -480z"/>
<path d="M1872 2186 c-99 -32 -171 -112 -193 -213 -32 -143 61 -295 204 -334
132 -35 278 38 334 168 24 56 22 166 -4 224 -57 126 -212 197 -341 155z m149
-57 c165 -50 208 -276 74 -387 -66 -54 -149 -66 -225 -31 -90 41 -134 108
-134 204 0 153 139 257 285 214z"/>
<path d="M945 840 c-14 -22 -25 -42 -25 -45 0 -3 466 -5 1036 -5 l1035 0 -25
43 -26 42 -985 3 -985 2 -25 -40z"/>
</g>
</svg>
