<?xml version="1.0" standalone="no"?>
<!DOCTYPE svg PUBLIC "-//W3C//DTD SVG 20010904//EN"
 "http://www.w3.org/TR/2001/REC-SVG-20010904/DTD/svg10.dtd">
<svg version="1.0" xmlns="http://www.w3.org/2000/svg"
 width="636.000000pt" height="344.000000pt" viewBox="0 0 636.000000 344.000000"
 preserveAspectRatio="xMidYMid meet">
<metadata>
Created by potrace 1.11, written by Peter Selinger 2001-2013
</metadata>
<g transform="translate(0.000000,344.000000) scale(0.100000,-0.100000)"
fill="#000000" stroke="none">
<path d="M1449 3013 c-11 -13 -15 -135 -19 -666 l-5 -649 -95 -34 c-125 -44
-293 -128 -407 -204 -166 -109 -335 -291 -372 -399 -30 -90 -4 -168 65 -197
51 -21 95 -17 221 21 318 96 730 184 1053 224 484 60 993 53 1455 -20 535 -85
991 -221 1815 -542 367 -142 413 -157 512 -157 169 0 302 88 359 239 81 216
-22 495 -272 735 -361 347 -960 548 -1714 575 l-179 6 -14 50 c-71 268 -176
460 -342 625 -227 226 -537 360 -931 401 -71 7 -189 10 -323 6 -206 -6 -257
-11 -459 -43 -92 -15 -99 -15 -117 1 -48 43 -203 62 -231 28z m142 -113 c5 0
14 -11 19 -25 5 -13 20 -27 33 -30 13 -4 93 5 178 19 228 38 387 49 592 43
292 -8 508 -57 713 -160 326 -165 524 -424 614 -807 28 -119 29 -120 204 -120
229 0 512 -29 741 -77 442 -90 772 -250 1011 -488 110 -109 169 -197 212 -317
56 -154 26 -310 -72 -378 -105 -71 -199 -67 -421 20 -1114 433 -1588 572
-2235 654 -433 55 -977 46 -1455 -25 -265 -39 -698 -137 -940 -214 -100 -31
-125 -32 -125 -5 0 76 164 259 330 369 118 79 282 158 425 207 61 20 116 42
123 47 9 7 12 150 12 654 0 584 1 645 16 639 9 -3 20 -6 25 -6z"/>
<path d="M1925 2853 c-11 -2 -55 -11 -97 -19 -111 -21 -206 -52 -229 -75 -17
-17 -19 -34 -19 -188 0 -182 -1 -177 55 -196 20 -7 37 -24 51 -50 11 -22 28
-41 37 -43 19 -4 20 0 62 130 62 194 168 290 364 329 67 13 80 26 63 63 -18
40 -70 56 -174 55 -51 -1 -102 -3 -113 -6z m119 -77 c-141 -52 -222 -127 -285
-261 -21 -45 -39 -88 -39 -94 0 -15 -11 -14 -48 5 l-32 15 0 139 0 139 83 26
c107 33 225 53 312 54 l70 0 -61 -23z"/>
<path d="M2572 2724 c-9 -16 3 -31 78 -105 221 -219 400 -601 465 -994 l21
-130 144 -8 c129 -6 310 -27 365 -42 43 -11 50 7 54 135 4 140 -10 251 -46
365 -131 417 -553 751 -999 791 -63 6 -73 4 -82 -12z m229 -75 c200 -51 394
-165 544 -320 102 -106 148 -171 205 -291 58 -120 80 -219 87 -379 3 -76 2
-138 -3 -141 -5 -3 -46 0 -92 8 -45 7 -143 16 -217 20 -74 4 -135 8 -135 9 0
1 -7 42 -15 91 -63 363 -237 754 -429 962 -32 34 -52 62 -44 62 8 0 52 -10 99
-21z"/>
<path d="M2375 2721 c-15 -25 -27 -307 -22 -521 7 -290 31 -465 88 -638 29
-87 33 -90 116 -80 37 4 154 9 258 11 105 1 196 6 204 11 32 20 -21 276 -99
480 -110 284 -291 563 -452 697 -58 48 -81 58 -93 40z m134 -167 c208 -223
399 -624 455 -955 l6 -36 -177 -7 c-98 -3 -201 -9 -230 -12 l-51 -6 -21 68
c-49 162 -81 422 -81 670 0 173 10 354 21 354 4 0 39 -34 78 -76z"/>
<path d="M2160 2701 c-197 -64 -316 -192 -356 -383 -13 -59 -15 -118 -11 -308
5 -229 24 -612 33 -657 6 -29 32 -30 101 -3 61 23 261 74 354 90 91 16 96 20
82 67 -97 326 -107 410 -108 853 -1 406 8 375 -95 341z m31 -303 c-4 -348 20
-593 83 -807 16 -56 20 -84 12 -86 -6 -2 -66 -15 -134 -30 -67 -15 -155 -37
-194 -51 -39 -13 -72 -24 -73 -24 -7 0 -30 518 -30 680 0 184 2 212 22 275 40
128 128 221 259 274 27 11 51 20 54 20 3 1 3 -112 1 -251z"/>
<path d="M1592 2298 c-9 -9 -12 -136 -12 -509 0 -274 3 -504 6 -513 15 -40
113 -4 141 52 16 33 18 72 21 381 3 363 -3 454 -39 529 -28 58 -88 89 -117 60z
m79 -140 c19 -74 20 -772 1 -805 -7 -13 -17 -23 -22 -23 -6 0 -10 166 -10 446
0 261 4 443 9 440 5 -3 15 -30 22 -58z"/>
<path d="M3799 1759 c-2 -8 -3 -91 -1 -185 l3 -171 228 -56 c639 -158 1092
-365 1399 -639 127 -113 145 -125 207 -138 186 -39 282 114 202 323 -101 262
-412 524 -802 676 -315 123 -643 187 -1026 198 -171 5 -206 4 -210 -8z m511
-74 c465 -59 862 -202 1137 -410 74 -55 200 -183 249 -251 84 -117 124 -240
104 -315 -20 -72 -67 -95 -155 -77 -40 9 -64 24 -135 87 -352 316 -804 527
-1479 692 l-171 42 0 130 0 130 163 -6 c89 -3 218 -13 287 -22z"/>
<path d="M1405 1513 c-176 -39 -446 -192 -597 -338 -86 -82 -90 -137 -11 -143
23 -2 61 5 90 17 27 10 173 54 324 96 151 42 282 78 292 81 30 9 47 66 47 154
0 78 -10 116 -34 132 -12 8 -78 9 -111 1z m85 -130 c0 -43 -4 -83 -8 -89 -4
-7 -122 -44 -262 -83 -140 -39 -288 -82 -329 -96 -41 -14 -76 -23 -78 -21 -8
8 142 130 231 188 114 75 237 134 329 158 120 31 117 33 117 -57z"/>
<path d="M2525 1439 c-140 -11 -345 -46 -404 -68 -38 -14 -46 -21 -46 -41 l0
-25 405 -6 c522 -9 794 -33 1155 -105 446 -88 990 -258 1638 -512 71 -28 135
-48 143 -45 51 19 -22 83 -256 224 -510 307 -1133 499 -1850 569 -145 15 -651
21 -785 9z m620 -59 c698 -45 1339 -217 1858 -499 64 -35 116 -66 114 -68 -2
-2 -85 26 -183 63 -922 340 -1623 484 -2363 484 -79 0 -142 2 -139 5 20 21
477 30 713 15z"/>
</g>
</svg>
