<?xml version="1.0" standalone="no"?>
<!DOCTYPE svg PUBLIC "-//W3C//DTD SVG 20010904//EN"
 "http://www.w3.org/TR/2001/REC-SVG-20010904/DTD/svg10.dtd">
<svg version="1.0" xmlns="http://www.w3.org/2000/svg"
 width="496.000000pt" height="680.000000pt" viewBox="0 0 496.000000 680.000000"
 preserveAspectRatio="xMidYMid meet">
<metadata>
Created by potrace 1.11, written by Peter Selinger 2001-2013
</metadata>
<g transform="translate(0.000000,680.000000) scale(0.100000,-0.100000)"
fill="#000000" stroke="none">
<path d="M3565 6555 c-86 -30 -109 -114 -56 -201 17 -28 29 -33 117 -53 139
-31 145 -34 228 -121 85 -89 143 -195 178 -325 31 -119 32 -368 0 -478 -39
-136 -98 -224 -195 -291 -45 -31 -71 -41 -135 -51 -137 -22 -182 -55 -182
-133 0 -55 20 -103 55 -130 55 -43 226 -22 356 43 163 83 317 287 369 489 37
144 43 276 21 433 -25 176 -34 215 -71 308 -107 269 -257 439 -434 494 -86 27
-201 34 -251 16z"/>
<path d="M1462 6525 c-30 -7 -91 -31 -136 -53 -65 -33 -98 -58 -155 -117 -118
-124 -180 -235 -228 -410 -27 -96 -28 -109 -28 -330 0 -223 1 -233 28 -320
109 -353 306 -540 574 -546 140 -3 219 94 165 201 -23 46 -62 67 -148 78 -87
12 -142 39 -210 103 -106 101 -147 233 -147 469 0 135 4 168 27 255 31 118 59
177 128 269 64 85 119 121 196 130 140 17 202 60 202 142 0 63 -23 102 -73
125 -48 21 -118 23 -195 4z"/>
<path d="M1855 6256 c-133 -38 -285 -193 -344 -350 -42 -114 -54 -209 -48
-391 5 -167 6 -171 41 -255 45 -106 124 -213 196 -262 65 -46 162 -78 235 -78
65 0 101 13 138 48 39 37 38 110 -2 174 -28 44 -30 45 -88 50 -126 12 -209 88
-242 222 -18 72 -15 251 4 327 32 124 124 249 183 249 51 0 130 29 151 57 38
47 22 153 -30 202 -19 17 -34 21 -88 20 -36 -1 -84 -6 -106 -13z"/>
<path d="M3096 6238 c-20 -20 -39 -53 -46 -78 -23 -86 30 -151 133 -164 101
-13 159 -73 202 -209 56 -177 56 -342 0 -461 -35 -74 -71 -104 -144 -122 -87
-20 -136 -47 -151 -84 -16 -40 -8 -115 17 -149 33 -44 60 -53 146 -46 306 23
506 382 431 776 -39 207 -104 351 -203 450 -81 81 -147 109 -268 117 l-83 4
-34 -34z"/>
<path d="M2520 5980 c-160 -34 -296 -173 -331 -338 -15 -74 -6 -211 20 -284
32 -93 106 -186 194 -245 l37 -26 0 -483 0 -484 -342 0 c-340 0 -343 0 -394
-24 -40 -18 -52 -30 -57 -52 -3 -16 -33 -141 -66 -279 -118 -490 -401 -1746
-671 -2979 -82 -375 -91 -423 -81 -457 16 -54 62 -89 115 -89 73 0 102 16 124
68 22 50 75 261 117 457 13 66 28 121 32 123 5 1 323 153 707 337 384 184 703
335 707 335 5 0 306 -148 669 -330 l659 -330 15 -52 c44 -159 67 -253 80 -340
19 -118 50 -204 87 -240 23 -23 36 -28 79 -28 88 0 130 38 130 116 0 19 -169
800 -376 1737 -206 936 -384 1747 -395 1801 -21 109 -49 168 -92 200 -27 20
-41 21 -403 24 l-374 3 0 483 0 484 53 30 c89 50 153 116 194 200 38 76 38 76
38 202 l-1 125 -39 80 c-52 104 -135 193 -212 228 -66 29 -157 40 -223 27z
m500 -2135 c0 -6 -400 -338 -428 -356 -17 -11 -39 5 -208 151 -104 90 -200
174 -214 187 l-25 23 438 0 c240 0 437 -2 437 -5z m430 -656 c67 -294 123
-540 125 -546 2 -7 1 -13 -3 -13 -7 0 -718 593 -759 633 l-23 22 83 71 c143
124 450 374 453 371 2 -2 58 -244 124 -538z m-1345 320 c135 -117 245 -215
245 -219 0 -9 -711 -580 -721 -580 -4 0 2 37 12 83 10 45 57 255 104 467 88
401 103 460 111 460 3 0 115 -95 249 -211z m950 -803 l476 -399 -50 -29 c-27
-16 -230 -114 -450 -219 l-401 -189 -485 237 c-267 131 -484 242 -482 246 4
14 901 757 909 755 4 -2 222 -183 483 -402z m-1155 -786 c220 -107 400 -198
400 -202 0 -19 -992 -479 -1005 -466 -7 6 189 868 197 865 4 -1 187 -90 408
-197z m1900 -255 c51 -223 90 -408 87 -412 -7 -6 -957 450 -951 456 5 6 756
359 765 360 3 1 47 -181 99 -404z"/>
</g>
</svg>
