<?xml version="1.0" standalone="no"?>
<!DOCTYPE svg PUBLIC "-//W3C//DTD SVG 20010904//EN"
 "http://www.w3.org/TR/2001/REC-SVG-20010904/DTD/svg10.dtd">
<svg version="1.0" xmlns="http://www.w3.org/2000/svg"
 width="326.000000pt" height="444.000000pt" viewBox="0 0 326.000000 444.000000"
 preserveAspectRatio="xMidYMid meet">
<metadata>
Created by potrace 1.11, written by Peter Selinger 2001-2013
</metadata>
<g transform="translate(0.000000,444.000000) scale(0.100000,-0.100000)"
fill="#000000" stroke="none">
<path d="M1282 3940 c-157 -41 -307 -152 -402 -297 -60 -91 -96 -180 -118
-293 l-17 -90 -197 0 -197 0 -20 -26 c-21 -27 -21 -29 -21 -1093 1 -988 2
-1069 18 -1102 32 -68 367 -598 381 -604 8 -3 512 -5 1120 -5 873 0 1108 3
1118 13 10 10 13 292 13 1357 0 740 0 1353 0 1362 0 10 -8 22 -18 27 -11 6
-115 17 -233 26 -118 9 -219 18 -225 20 -6 2 -14 33 -18 68 -27 269 -169 497
-371 596 -120 59 -261 76 -394 46 -60 -14 -74 -14 -132 0 -86 20 -198 18 -287
-5z m88 -188 c-69 -71 -95 -106 -133 -182 -43 -87 -87 -233 -87 -287 0 -23 -2
-23 -140 -23 -139 0 -140 0 -140 23 0 77 73 256 142 345 93 120 257 209 393
211 l50 1 -85 -88z m586 74 c133 -35 247 -132 313 -268 44 -89 81 -217 81
-281 0 -39 0 -39 -32 -34 -18 3 -80 9 -138 12 l-106 7 -13 82 c-27 174 -101
333 -204 437 l-59 59 54 0 c29 0 76 -6 104 -14z m-258 -65 c75 -49 134 -122
183 -226 36 -77 69 -197 69 -249 l0 -26 -341 0 -342 0 7 51 c15 110 76 242
158 341 35 42 176 148 197 148 4 0 35 -18 69 -39z m-1119 -656 c52 -8 95 -16
97 -18 2 -2 3 -540 2 -1195 l-3 -1191 -122 198 -123 198 0 1010 c0 555 3 1013
6 1016 4 4 16 4 28 2 12 -3 63 -12 115 -20z m2269 -1292 l-3 -1268 -1022 -3
-1023 -2 0 1270 0 1270 1025 0 1025 0 -2 -1267z"/>
<path d="M1718 2604 l-3 -106 -53 -20 c-108 -40 -206 -162 -233 -289 -19 -87
-7 -218 26 -286 55 -111 136 -171 318 -235 143 -50 190 -77 212 -124 22 -46
16 -138 -12 -186 -38 -68 -157 -98 -233 -60 -39 19 -59 54 -67 113 l-6 39
-120 0 -120 0 6 -52 c21 -173 106 -290 245 -335 l52 -17 0 -108 0 -108 105 0
105 0 0 113 0 112 49 18 c100 35 186 127 227 242 13 36 18 80 18 155 1 97 -2
110 -31 172 -55 118 -129 174 -314 239 -208 74 -232 96 -227 216 5 110 54 164
156 171 105 7 150 -28 167 -130 l6 -38 119 0 120 0 -6 48 c-21 170 -104 292
-232 336 l-37 13 -3 106 -3 107 -114 0 -114 0 -3 -106z"/>
</g>
</svg>
