<?xml version="1.0" standalone="no"?>
<!DOCTYPE svg PUBLIC "-//W3C//DTD SVG 20010904//EN"
 "http://www.w3.org/TR/2001/REC-SVG-20010904/DTD/svg10.dtd">
<svg version="1.0" xmlns="http://www.w3.org/2000/svg"
 width="442.000000pt" height="408.000000pt" viewBox="0 0 442.000000 408.000000"
 preserveAspectRatio="xMidYMid meet">
<metadata>
Created by potrace 1.11, written by Peter Selinger 2001-2013
</metadata>
<g transform="translate(0.000000,408.000000) scale(0.100000,-0.100000)"
fill="#000000" stroke="none">
<path d="M2290 3680 l-1216 -16 -51 -28 c-28 -15 -56 -39 -62 -52 -8 -18 -11
-361 -11 -1219 l0 -1195 -230 0 c-217 0 -231 -1 -250 -20 -19 -19 -20 -33 -20
-368 l0 -349 23 -21 23 -22 1718 0 1717 0 25 25 25 25 -3 341 -3 341 -28 24
-28 24 -680 0 -679 0 0 490 0 490 658 0 c501 0 663 3 682 13 14 6 37 36 53 66
l27 55 0 649 0 650 -58 59 -59 58 -179 -1 c-98 -1 -726 -9 -1394 -19z m1518
-152 c9 -9 12 -158 12 -610 l0 -598 -159 0 -160 0 -3 181 c-3 176 -4 181 -27
200 -22 18 -54 19 -998 19 -980 0 -1003 -1 -1025 -34 -4 -6 -8 -113 -8 -237 0
-208 2 -229 19 -250 19 -23 24 -24 218 -29 l198 -5 0 -495 0 -495 -383 -3
-382 -2 0 1164 0 1164 243 6 c133 4 733 12 1332 20 600 7 1095 14 1101 15 5 0
15 -4 22 -11z m-448 -1088 l0 -139 -895 2 -895 2 0 138 0 137 895 0 895 0 0
-140z m460 -1660 l0 -230 -1610 0 -1610 0 0 230 0 230 1610 0 1610 0 0 -230z"/>
</g>
</svg>
