<?xml version="1.0" standalone="no"?>
<!DOCTYPE svg PUBLIC "-//W3C//DTD SVG 20010904//EN"
 "http://www.w3.org/TR/2001/REC-SVG-20010904/DTD/svg10.dtd">
<svg version="1.0" xmlns="http://www.w3.org/2000/svg"
 width="430.000000pt" height="542.000000pt" viewBox="0 0 430.000000 542.000000"
 preserveAspectRatio="xMidYMid meet">
<metadata>
Created by potrace 1.11, written by Peter Selinger 2001-2013
</metadata>
<g transform="translate(0.000000,542.000000) scale(0.100000,-0.100000)"
fill="#000000" stroke="none">
<path d="M1709 4977 c-120 -111 -296 -366 -400 -581 -159 -329 -231 -684 -216
-1051 8 -177 26 -284 78 -465 102 -358 252 -643 448 -852 l61 -66 -510 -848
-511 -849 613 -7 c337 -4 831 -7 1097 -5 l485 2 -33 38 c-30 34 -815 1387
-808 1393 1 1 30 -15 64 -36 95 -61 264 -145 376 -188 205 -79 365 -111 593
-119 246 -9 398 8 644 70 113 29 204 56 204 60 -1 5 -215 364 -475 799 -261
436 -475 796 -477 802 -1 6 89 65 200 130 112 66 205 121 206 122 2 1 -29 63
-70 138 -60 111 -77 135 -95 136 -27 0 -145 -61 -307 -159 -97 -58 -122 -69
-132 -59 -6 7 -101 164 -209 348 -302 511 -743 1245 -762 1268 -18 21 -18 21
-64 -21z m664 -1522 c679 -1132 992 -1649 1059 -1748 22 -32 37 -61 35 -64
-27 -27 -452 -33 -602 -8 -274 44 -571 175 -785 345 -228 182 -421 413 -535
640 -118 236 -172 458 -182 755 -14 405 76 747 285 1092 31 51 59 89 63 85 4
-4 302 -497 662 -1097z m-341 -2441 l258 -449 -527 -3 c-289 -1 -528 -1 -530
1 -3 4 360 637 474 827 26 44 52 79 57 77 5 -2 125 -205 268 -453z"/>
</g>
</svg>
