<?xml version="1.0" standalone="no"?>
<!DOCTYPE svg PUBLIC "-//W3C//DTD SVG 20010904//EN"
 "http://www.w3.org/TR/2001/REC-SVG-20010904/DTD/svg10.dtd">
<svg version="1.0" xmlns="http://www.w3.org/2000/svg"
 width="412.000000pt" height="440.000000pt" viewBox="0 0 412.000000 440.000000"
 preserveAspectRatio="xMidYMid meet">
<metadata>
Created by potrace 1.11, written by Peter Selinger 2001-2013
</metadata>
<g transform="translate(0.000000,440.000000) scale(0.100000,-0.100000)"
fill="#000000" stroke="none">
<path d="M1840 3920 c-137 -16 -348 -78 -503 -149 -304 -138 -591 -394 -756
-674 -152 -260 -235 -491 -248 -689 l-6 -88 456 -2 c373 -3 458 -1 462 10 3 8
5 162 5 343 l0 329 338 2 337 3 0 459 c0 298 -4 460 -10 461 -5 1 -39 -1 -75
-5z m-90 -465 l0 -265 -337 -2 -338 -3 -3 -337 -2 -338 -265 0 c-303 0 -277
-11 -246 105 61 238 163 413 381 660 154 174 461 357 710 424 41 11 81 20 88
20 9 1 12 -58 12 -264z"/>
<path d="M2186 3923 c-3 -4 -6 -213 -6 -465 l0 -458 338 -2 337 -3 3 -330 c1
-181 6 -333 10 -337 4 -4 210 -8 457 -8 l450 -1 -3 38 c-7 81 -63 333 -93 418
-95 272 -245 486 -509 728 -197 181 -572 370 -805 405 -105 16 -172 22 -179
15z m344 -249 c113 -38 281 -121 400 -199 95 -62 330 -296 391 -390 106 -160
205 -379 233 -508 l14 -67 -264 0 -264 0 -2 338 -3 337 -342 3 -343 2 0 266 0
265 38 -7 c20 -3 84 -22 142 -40z"/>
<path d="M1880 2816 c-111 -32 -261 -132 -337 -225 -58 -71 -99 -156 -120
-254 -15 -68 -15 -90 -4 -190 25 -214 126 -384 292 -493 95 -62 173 -85 304
-91 211 -9 339 42 496 197 93 92 135 163 164 275 19 76 19 234 0 310 -48 190
-209 378 -385 452 -60 25 -77 27 -215 30 -100 1 -165 -2 -195 -11z m365 -211
c99 -50 172 -117 216 -197 34 -63 34 -64 34 -193 0 -129 0 -130 -37 -208 -69
-143 -178 -232 -317 -257 -187 -34 -418 77 -501 241 -29 56 -51 166 -46 228
10 113 52 204 138 297 53 58 87 82 157 111 49 21 69 23 167 21 107 -3 114 -4
189 -43z"/>
<path d="M330 2029 c0 -78 45 -285 85 -389 51 -135 155 -330 233 -439 89 -125
224 -266 352 -369 170 -136 496 -286 719 -332 57 -11 127 -20 155 -18 l51 3 0
455 0 455 -337 3 -338 2 -2 338 -3 337 -457 3 -458 2 0 -51z m740 -474 l5
-340 338 -3 337 -2 0 -258 c0 -142 -2 -261 -6 -264 -16 -16 -274 71 -396 134
-231 119 -484 353 -618 573 -81 131 -167 348 -186 465 l-7 40 264 -2 264 -3 5
-340z"/>
<path d="M2867 2073 c-4 -3 -7 -156 -7 -340 l0 -333 -337 -2 -338 -3 -3 -455
-2 -456 72 7 c115 11 286 49 365 80 368 145 678 386 867 673 133 202 260 527
286 728 7 58 7 85 -1 95 -9 10 -96 13 -454 13 -243 0 -445 -3 -448 -7z m695
-212 c-9 -87 -128 -382 -193 -478 -46 -68 -186 -236 -261 -314 -151 -156 -498
-339 -725 -382 l-33 -6 0 264 0 265 333 0 c246 0 336 3 345 12 9 9 12 98 12
338 0 180 3 330 7 333 4 4 122 6 262 5 l256 -3 -3 -34z"/>
</g>
</svg>
