<?xml version="1.0" standalone="no"?>
<!DOCTYPE svg PUBLIC "-//W3C//DTD SVG 20010904//EN"
 "http://www.w3.org/TR/2001/REC-SVG-20010904/DTD/svg10.dtd">
<svg version="1.0" xmlns="http://www.w3.org/2000/svg"
 width="764.000000pt" height="94.000000pt" viewBox="0 0 764.000000 94.000000"
 preserveAspectRatio="xMidYMid meet">
<metadata>
Created by potrace 1.11, written by Peter Selinger 2001-2013
</metadata>
<g transform="translate(0.000000,94.000000) scale(0.100000,-0.100000)"
fill="#000000" stroke="none">
<path d="M7118 686 l-167 -11 -38 -37 -39 -38 -1839 0 c-1234 0 -2104 -5
-2640 -15 -440 -8 -1002 -15 -1250 -15 l-449 0 -93 55 -92 55 -163 -2 -163 -3
-3 -82 -3 -83 118 0 118 0 165 -135 164 -135 3036 0 3035 0 152 135 152 135
120 0 121 0 0 95 0 95 -37 -1 c-21 -1 -113 -7 -205 -13z"/>
</g>
</svg>
