<?xml version="1.0" standalone="no"?>
<!DOCTYPE svg PUBLIC "-//W3C//DTD SVG 20010904//EN"
 "http://www.w3.org/TR/2001/REC-SVG-20010904/DTD/svg10.dtd">
<svg version="1.0" xmlns="http://www.w3.org/2000/svg"
 width="460.000000pt" height="428.000000pt" viewBox="0 0 460.000000 428.000000"
 preserveAspectRatio="xMidYMid meet">
<metadata>
Created by potrace 1.11, written by Peter Selinger 2001-2013
</metadata>
<g transform="translate(0.000000,428.000000) scale(0.100000,-0.100000)"
fill="#000000" stroke="none">
<path d="M2156 4069 c-557 -59 -1063 -372 -1400 -868 -272 -399 -369 -933
-265 -1461 85 -432 346 -833 736 -1133 221 -170 516 -299 791 -348 146 -26
434 -36 581 -20 452 49 817 226 1147 555 342 342 518 727 555 1212 20 256 -14
544 -91 775 -151 455 -524 879 -965 1099 -215 107 -407 163 -647 189 -111 12
-326 12 -442 0z m74 -682 l0 -414 -84 -22 c-80 -21 -170 -60 -228 -97 l-27
-18 -218 224 c-120 124 -247 256 -283 294 l-65 68 35 30 c196 166 526 301 835
341 17 2 31 5 33 6 1 0 2 -185 2 -412z m405 393 c278 -39 599 -177 783 -337
l33 -28 -295 -300 c-287 -293 -294 -300 -317 -286 -13 8 -48 29 -76 47 -43 25
-130 58 -240 90 -10 3 -13 94 -13 412 0 225 3 411 6 414 3 3 13 4 22 3 9 -2
53 -9 97 -15z m-1255 -772 c124 -128 249 -258 278 -289 l53 -57 -31 -45 c-45
-67 -97 -183 -117 -262 l-19 -70 -404 0 -405 0 3 50 c10 150 79 389 158 546
66 132 225 359 252 359 3 0 107 -105 232 -232z m2314 150 c172 -230 294 -537
322 -811 l7 -67 -418 2 -417 3 -18 71 c-18 70 -73 192 -112 247 l-19 27 293
300 c161 165 296 300 300 300 4 0 32 -33 62 -72z m-1164 -394 c106 -27 198
-81 286 -168 131 -130 188 -264 188 -441 0 -177 -57 -309 -189 -441 -177 -177
-407 -234 -641 -160 -208 66 -380 249 -429 458 -84 359 162 709 540 768 61 10
171 2 245 -16z m-966 -821 c18 -77 75 -201 113 -252 l26 -33 -289 -290 -289
-289 -33 37 c-57 66 -148 206 -197 304 -79 157 -131 339 -159 553 l-5 37 408
0 408 0 17 -67z m2456 38 c0 -54 -41 -242 -75 -348 -58 -177 -178 -395 -282
-512 l-38 -43 -288 295 -287 295 44 83 c25 47 54 122 67 172 l21 87 419 0 419
0 0 -29z m-857 -783 l287 -293 -42 -38 c-107 -97 -319 -215 -492 -272 -99 -33
-249 -67 -353 -79 l-53 -7 0 414 0 414 55 12 c77 17 167 56 239 101 34 22 63
40 66 40 3 1 134 -131 293 -292z m-1015 162 l82 -24 0 -413 0 -414 -52 7
c-181 22 -364 76 -524 154 -101 49 -248 142 -314 199 l-35 30 288 289 288 288
93 -46 c51 -26 130 -57 174 -70z"/>
</g>
</svg>
