<?xml version="1.0" standalone="no"?>
<!DOCTYPE svg PUBLIC "-//W3C//DTD SVG 20010904//EN"
 "http://www.w3.org/TR/2001/REC-SVG-20010904/DTD/svg10.dtd">
<svg version="1.0" xmlns="http://www.w3.org/2000/svg"
 width="534.000000pt" height="538.000000pt" viewBox="0 0 534.000000 538.000000"
 preserveAspectRatio="xMidYMid meet">
<metadata>
Created by potrace 1.11, written by Peter Selinger 2001-2013
</metadata>
<g transform="translate(0.000000,538.000000) scale(0.100000,-0.100000)"
fill="#000000" stroke="none">
<path d="M190 2685 l0 -2465 2470 0 2470 0 0 2465 0 2465 -2470 0 -2470 0 0
-2465z m2438 1233 l-3 -1183 -1185 0 -1185 0 -3 1183 -2 1182 1190 0 1190 0
-2 -1182z m2440 0 l-3 -1183 -1185 0 -1185 0 -3 1183 -2 1182 1190 0 1190 0
-2 -1182z m-3 -2448 l0 -1185 -1185 0 -1185 0 -3 1175 c-1 646 0 1181 3 1188
3 10 246 12 1187 10 l1183 -3 0 -1185z m-3525 -245 l0 -715 -100 0 -100 0 0
715 0 715 100 0 100 0 0 -715z"/>
<path d="M1250 4590 c-242 -64 -402 -227 -467 -475 -27 -105 -24 -369 5 -480
66 -246 208 -408 412 -470 83 -25 297 -31 383 -11 182 43 323 166 397 344 50
122 53 115 -52 140 -50 13 -94 19 -98 15 -4 -4 -12 -28 -19 -53 -33 -116 -135
-231 -239 -270 -209 -79 -454 13 -547 204 -66 136 -89 373 -50 536 58 252 237
394 475 377 159 -11 260 -80 326 -221 l34 -74 62 14 c35 9 76 18 91 21 25 5
28 9 23 33 -18 94 -117 230 -214 296 -92 64 -172 86 -322 90 -102 3 -139 0
-200 -16z"/>
<path d="M3520 3875 l0 -715 95 0 95 0 0 290 0 290 229 0 c257 0 368 14 459
57 255 120 289 544 57 709 -100 71 -198 84 -622 84 l-313 0 0 -715z m750 524
c93 -42 142 -120 142 -229 0 -141 -71 -222 -217 -249 -32 -6 -155 -11 -272
-11 l-213 0 0 256 0 256 263 -4 c209 -3 269 -7 297 -19z"/>
<path d="M3530 1855 l0 -85 233 -2 232 -3 3 -627 2 -628 90 0 90 0 2 628 3
627 238 3 237 2 0 85 0 85 -565 0 -565 0 0 -85z"/>
</g>
</svg>
