<?xml version="1.0" standalone="no"?>
<!DOCTYPE svg PUBLIC "-//W3C//DTD SVG 20010904//EN"
 "http://www.w3.org/TR/2001/REC-SVG-20010904/DTD/svg10.dtd">
<svg version="1.0" xmlns="http://www.w3.org/2000/svg"
 width="524.000000pt" height="524.000000pt" viewBox="0 0 524.000000 524.000000"
 preserveAspectRatio="xMidYMid meet">
<metadata>
Created by potrace 1.11, written by Peter Selinger 2001-2013
</metadata>
<g transform="translate(0.000000,524.000000) scale(0.100000,-0.100000)"
fill="#000000" stroke="none">
<path d="M140 2593 l0 -2473 2465 0 2465 0 0 2473 0 2472 -2465 0 -2465 0 0
-2472z m4878 1220 l-3 -1188 -1180 0 -1180 0 -3 1188 -2 1187 1185 0 1185 0
-2 -1187z m-3592 781 c99 -25 164 -63 241 -140 54 -53 82 -90 107 -145 57
-123 60 -114 -42 -138 -49 -12 -94 -21 -99 -21 -4 0 -21 29 -37 65 -32 75
-102 157 -155 184 -127 65 -326 55 -449 -23 -48 -30 -115 -104 -141 -154 -48
-95 -66 -188 -66 -347 1 -219 37 -335 136 -440 113 -119 334 -164 482 -97 106
48 191 148 224 262 8 30 17 58 19 61 4 7 181 -35 191 -45 9 -9 -15 -84 -54
-165 -45 -95 -151 -205 -241 -250 -99 -50 -171 -65 -307 -64 -212 2 -345 53
-462 176 -128 137 -196 336 -195 577 0 169 29 294 94 408 103 179 253 274 498
316 44 8 196 -4 256 -20z m1144 -3224 l0 -1190 -1182 2 -1183 3 -3 1188 -2
1187 1185 0 1185 0 0 -1190z m2448 3 l-3 -1188 -1180 0 -1180 0 -3 1188 -2
1187 1185 0 1185 0 -2 -1187z"/>
<path d="M3340 3875 l0 -715 95 0 95 0 0 290 0 290 229 0 c257 0 368 14 459
57 255 120 289 544 57 709 -100 71 -198 84 -622 84 l-313 0 0 -715z m750 524
c93 -42 142 -120 142 -229 0 -141 -71 -222 -217 -249 -32 -6 -155 -11 -272
-11 l-213 0 0 256 0 256 263 -4 c209 -3 269 -7 297 -19z"/>
<path d="M1170 1225 l0 -715 90 0 90 0 0 715 0 715 -90 0 -90 0 0 -715z"/>
<path d="M3350 1855 l0 -85 233 -2 232 -3 3 -627 2 -628 90 0 90 0 2 628 3
627 238 3 237 2 0 85 0 85 -565 0 -565 0 0 -85z"/>
</g>
</svg>
