<?xml version="1.0" standalone="no"?>
<!DOCTYPE svg PUBLIC "-//W3C//DTD SVG 20010904//EN"
 "http://www.w3.org/TR/2001/REC-SVG-20010904/DTD/svg10.dtd">
<svg version="1.0" xmlns="http://www.w3.org/2000/svg"
 width="540.000000pt" height="542.000000pt" viewBox="0 0 540.000000 542.000000"
 preserveAspectRatio="xMidYMid meet">
<metadata>
Created by potrace 1.11, written by Peter Selinger 2001-2013
</metadata>
<g transform="translate(0.000000,542.000000) scale(0.100000,-0.100000)"
fill="#000000" stroke="none">
<path d="M230 2725 l0 -2465 2470 0 2470 0 0 2465 0 2465 -2470 0 -2470 0 0
-2465z m2440 1220 l0 -1185 -1190 0 -1190 0 0 1185 0 1185 1190 0 1190 0 0
-1185z m1638 807 c117 -42 178 -94 226 -195 95 -203 14 -481 -166 -569 -95
-47 -183 -58 -448 -58 l-240 0 0 -290 0 -290 -100 0 -100 0 0 716 0 715 383
-3 c367 -3 385 -4 445 -26z m-1640 -3254 l-3 -1183 -1185 0 -1185 0 -3 1183
-2 1182 1190 0 1190 0 -2 -1182z m2440 0 l-3 -1183 -1185 0 -1185 0 -3 1183
-2 1182 1190 0 1190 0 -2 -1182z"/>
<path d="M1210 4780 c-242 -64 -402 -227 -467 -475 -27 -105 -24 -369 5 -480
66 -246 208 -408 412 -470 83 -25 297 -31 383 -11 182 43 323 166 397 344 50
122 53 115 -52 140 -50 13 -94 19 -98 15 -4 -4 -12 -28 -19 -53 -33 -116 -135
-231 -239 -270 -209 -79 -454 13 -547 204 -66 136 -89 373 -50 536 58 252 237
394 475 377 159 -11 260 -80 326 -221 l34 -74 62 14 c35 9 76 18 91 21 25 5
28 9 23 33 -18 94 -117 230 -214 296 -92 64 -172 86 -322 90 -102 3 -139 0
-200 -16z"/>
<path d="M3680 4350 l0 -250 173 0 c337 0 434 27 489 133 29 57 35 151 14 215
-20 61 -86 125 -142 141 -23 6 -142 11 -286 11 l-248 0 0 -250z"/>
<path d="M1310 1415 l0 -715 90 0 90 0 0 715 0 715 -90 0 -90 0 0 -715z"/>
<path d="M3490 2045 l0 -85 233 -2 232 -3 3 -627 2 -628 90 0 90 0 2 628 3
627 238 3 237 2 0 85 0 85 -565 0 -565 0 0 -85z"/>
</g>
</svg>
