<?xml version="1.0" standalone="no"?>
<!DOCTYPE svg PUBLIC "-//W3C//DTD SVG 20010904//EN"
 "http://www.w3.org/TR/2001/REC-SVG-20010904/DTD/svg10.dtd">
<svg version="1.0" xmlns="http://www.w3.org/2000/svg"
 width="428.000000pt" height="298.000000pt" viewBox="0 0 428.000000 298.000000"
 preserveAspectRatio="xMidYMid meet">
<metadata>
Created by potrace 1.11, written by Peter Selinger 2001-2013
</metadata>
<g transform="translate(0.000000,298.000000) scale(0.100000,-0.100000)"
fill="#000000" stroke="none">
<path d="M1835 2791 c-15 -7 -47 -76 -124 -271 l-103 -263 20 -26 19 -26 433
-3 c472 -2 480 -2 480 53 0 13 -41 128 -91 257 -97 248 -106 269 -123 280 -15
10 -486 9 -511 -1z m509 -279 c36 -93 66 -174 66 -180 0 -9 -81 -12 -326 -12
-257 0 -325 3 -321 13 13 31 117 295 126 320 l11 27 189 0 189 0 66 -168z"/>
<path d="M1308 2018 c-9 -7 -55 -112 -101 -233 -47 -121 -92 -236 -100 -255
-15 -38 -13 -55 11 -82 13 -16 37 -18 223 -18 l208 0 20 26 c12 15 21 36 21
48 0 11 20 123 45 248 24 125 42 234 39 243 -4 9 -15 20 -25 25 -27 15 -322
13 -341 -2z m237 -120 c-2 -7 -18 -88 -36 -180 l-31 -168 -118 0 -118 0 40
103 c22 56 53 137 69 180 l30 77 84 0 c63 0 83 -3 80 -12z"/>
<path d="M1808 2013 c-15 -18 -358 -1756 -358 -1814 0 -14 8 -33 18 -42 17
-15 74 -17 610 -17 355 0 601 4 616 10 14 5 28 20 31 33 8 30 -332 1794 -351
1825 -14 22 -15 22 -283 22 -243 0 -269 -2 -283 -17z m634 -918 c86 -445 157
-816 158 -822 0 -10 -108 -13 -510 -13 -401 0 -510 3 -510 13 0 6 70 378 157
825 l157 812 195 -2 195 -3 158 -810z"/>
<path d="M2514 2009 c-18 -20 -17 -25 29 -262 26 -133 48 -250 47 -259 0 -9
12 -26 26 -37 25 -20 40 -21 223 -21 212 0 241 6 241 53 0 30 -196 529 -212
539 -7 4 -85 8 -174 8 -150 0 -162 -1 -180 -21z m350 -271 c36 -95 66 -176 66
-180 0 -8 -230 -12 -230 -5 0 2 -16 82 -35 177 -19 95 -35 175 -35 177 0 2 38
3 83 3 l84 0 67 -172z"/>
<path d="M2660 1368 c-35 -13 -33 -53 13 -291 38 -194 49 -235 67 -249 20 -16
53 -18 374 -18 l353 0 21 23 c12 13 22 27 22 32 0 17 -182 480 -193 492 -13
14 -623 24 -657 11z m637 -268 c34 -85 62 -158 62 -162 1 -5 -120 -8 -269 -8
-148 0 -270 1 -270 3 0 1 -14 72 -30 157 -16 85 -30 158 -30 163 0 4 107 6
238 5 l237 -3 62 -155z"/>
<path d="M862 1357 c-14 -16 -183 -444 -189 -479 -3 -18 2 -33 16 -47 21 -21
29 -21 379 -21 332 0 360 1 375 18 10 11 32 98 57 227 58 293 55 273 35 295
-17 19 -32 20 -340 20 -250 0 -325 -3 -333 -13z m555 -129 c-3 -13 -18 -85
-33 -160 l-27 -138 -268 0 c-148 0 -269 2 -269 5 0 3 23 65 51 138 28 73 55
142 60 155 8 22 9 22 250 22 l241 0 -5 -22z"/>
<path d="M2780 748 c-11 -4 -22 -19 -26 -32 -9 -38 87 -524 109 -553 l18 -23
525 0 c519 0 524 0 545 21 14 14 19 29 16 47 -7 39 -196 515 -210 529 -9 9
-129 13 -485 15 -260 2 -482 0 -492 -4z m897 -120 c10 -13 143 -349 143 -361
0 -4 -195 -7 -434 -7 l-433 0 -37 183 c-20 100 -36 185 -36 190 0 4 177 7 394
7 303 0 396 -3 403 -12z"/>
<path d="M419 734 c-18 -22 -209 -515 -209 -540 0 -11 8 -28 18 -37 17 -15 69
-17 544 -17 489 0 526 1 541 18 10 11 35 117 68 284 52 261 53 267 34 287 -18
21 -27 21 -500 21 -425 0 -484 -2 -496 -16z m877 -121 c-3 -10 -19 -93 -37
-185 l-31 -168 -434 0 c-253 0 -434 4 -434 9 0 9 127 338 137 354 2 4 184 7
404 7 377 0 400 -1 395 -17z"/>
</g>
</svg>
