<?xml version="1.0" standalone="no"?>
<!DOCTYPE svg PUBLIC "-//W3C//DTD SVG 20010904//EN"
 "http://www.w3.org/TR/2001/REC-SVG-20010904/DTD/svg10.dtd">
<svg version="1.0" xmlns="http://www.w3.org/2000/svg"
 width="372.000000pt" height="452.000000pt" viewBox="0 0 372.000000 452.000000"
 preserveAspectRatio="xMidYMid meet">
<metadata>
Created by potrace 1.11, written by Peter Selinger 2001-2013
</metadata>
<g transform="translate(0.000000,452.000000) scale(0.100000,-0.100000)"
fill="#000000" stroke="none">
<path d="M2599 4003 c0 -5 0 -99 1 -210 l2 -203 -34 0 c-54 0 -58 -10 -58
-157 l0 -132 -67 -3 -68 -3 -3 -617 -2 -618 -99 0 -99 0 -7 37 c-10 55 -57
152 -119 247 -45 70 -72 97 -153 160 -115 89 -191 131 -259 146 l-50 11 60
118 59 117 -81 136 c-45 75 -82 141 -82 147 0 7 9 30 20 52 l21 40 -38 72
c-21 39 -53 91 -70 115 -30 38 -33 49 -33 112 l0 71 -97 -3 -98 -3 -3 -70 c-3
-61 -7 -74 -32 -100 -29 -31 -120 -172 -120 -188 0 -5 14 -28 30 -52 17 -24
30 -49 30 -55 0 -14 -61 -135 -111 -222 l-40 -67 49 -78 c26 -43 58 -94 70
-114 l22 -36 -58 -22 c-96 -35 -232 -122 -315 -200 -89 -85 -155 -180 -203
-290 l-33 -76 -76 -3 -75 -3 0 -880 0 -879 397 2 398 3 5 430 c6 461 7 471 60
543 43 59 79 75 161 70 59 -3 72 -8 100 -33 17 -17 38 -43 46 -60 39 -75 43
-118 43 -543 l0 -412 863 2 862 3 2 870 c1 651 -2 872 -10 877 -7 4 -22 8 -34
8 l-23 0 0 609 c0 483 -3 611 -13 619 -7 6 -40 12 -72 14 l-60 3 -5 140 -5
140 -37 3 -38 3 -2 207 -3 207 -207 3 c-115 1 -208 -1 -209 -5z m229 -383 c3
-218 3 -220 55 -220 l27 0 0 -135 c0 -153 -7 -142 95 -147 l50 -3 3 -622 2
-622 33 -3 32 -3 3 -687 2 -688 -679 0 -680 0 -3 378 -3 377 -37 70 c-46 90
-112 163 -180 200 -48 27 -61 30 -149 30 -90 0 -99 -2 -171 -38 -84 -41 -148
-103 -179 -173 -45 -100 -49 -141 -49 -501 l0 -343 -213 0 -214 0 -6 137 c-4
75 -7 385 -7 690 l0 553 54 0 c42 0 55 4 61 18 4 9 20 55 36 101 75 220 258
407 459 473 90 29 281 36 368 14 213 -54 363 -215 458 -490 13 -38 24 -80 24
-93 l0 -23 268 2 267 3 3 623 2 622 54 0 c89 0 86 -6 86 146 l0 134 26 0 c14
0 34 5 45 10 18 10 19 23 19 216 0 190 1 205 18 202 15 -3 17 -22 20 -208z
m-1375 -681 l26 -60 -30 -50 -31 -49 -66 0 -67 0 -31 53 -30 52 35 58 36 57
66 0 66 0 26 -61z"/>
<path d="M2615 2998 c-3 -8 -4 -115 -3 -238 l3 -225 178 -3 177 -2 -2 237 -3
238 -173 3 c-134 2 -174 0 -177 -10z m225 -233 l0 -115 -50 0 -50 0 0 115 0
115 50 0 50 0 0 -115z"/>
<path d="M2615 2448 c-3 -8 -4 -117 -3 -243 l3 -230 175 0 175 0 0 240 0 240
-173 3 c-134 2 -174 0 -177 -10z m225 -233 l0 -115 -50 0 -50 0 0 115 0 115
50 0 50 0 0 -115z"/>
</g>
</svg>
